<svg width="750.56" height="750.56" xmlns="http://www.w3.org/2000/svg" xmlns:undefined="http://sodipodi.sourceforge.net/DTD/sodipodi-0.dtd" version="1.1">

 <g>
  <title>Layer 1</title>
  <path fill-rule="nonzero" fill="#231f20" id="path12" d="m266.78532,860.2322c0,-0.875 -0.128,-1.62552 -0.388,-2.24432c-0.248,-0.62813 -0.60133,-1.10773 -1.05867,-1.44947c-0.45467,-0.33333 -0.94933,-0.50107 -1.50667,-0.50107c-0.86933,0 -1.60667,0.36667 -2.208,1.07867c-0.60133,0.724 -0.90133,1.77973 -0.90133,3.17608c0,1.31563 0.3,2.33855 0.89333,3.06147c0.59867,0.73333 1.34133,1.10364 2.216,1.10364c0.52933,0 1.01867,-0.15833 1.472,-0.48385c0.44267,-0.31875 0.80133,-0.79584 1.072,-1.42917c0.27333,-0.64167 0.40933,-1.41093 0.40933,-2.31197zm-6.208,-4.81192l0,0.39427c0.59333,-0.76253 1.212,-1.3308 1.852,-1.68547c0.64533,-0.36093 1.376,-0.54373 2.18667,-0.54373c0.97333,0 1.872,0.26507 2.68933,0.79213c0.82133,0.5224 1.46667,1.28493 1.944,2.29693c0.47467,1.01093 0.712,2.20309 0.712,3.58539c0,1.01459 -0.13333,1.95729 -0.408,2.80157c-0.27467,0.85052 -0.65067,1.57083 -1.13333,2.14791c-0.48,0.57448 -1.04667,1.0198 -1.7,1.32813c-0.656,0.31301 -1.35867,0.46927 -2.104,0.46927c-0.912,0 -1.66933,-0.18803 -2.284,-0.56823c-0.62,-0.37865 -1.2,-0.93333 -1.75467,-1.66928l0,4.95887c0,1.45468 -0.508,2.17864 -1.52133,2.17864c-0.59467,0 -0.992,-0.18125 -1.18,-0.55885c-0.19467,-0.37708 -0.29067,-0.9224 -0.29067,-1.64271l0,-14.26671c0,-0.62653 0.12667,-1.0984 0.392,-1.4088c0.26667,-0.3084 0.62533,-0.4672 1.07867,-0.4672c0.45067,0 0.816,0.1588 1.096,0.48173c0.28267,0.3224 0.42533,0.78133 0.42533,1.37613"/>
  <path fill-rule="nonzero" fill="#231f20" id="path14" d="m280.73465,865.13741l0,-0.41615c-0.38133,0.5 -0.78,0.91353 -1.2,1.25052c-0.41467,0.34531 -0.87067,0.59635 -1.364,0.76145c-0.49733,0.16251 -1.06267,0.24688 -1.696,0.24688c-0.76267,0 -1.44933,-0.16667 -2.05733,-0.49636c-0.60933,-0.33177 -1.08,-0.78489 -1.40933,-1.36667c-0.39733,-0.7052 -0.59067,-1.71301 -0.59067,-3.02239l0,-6.55203c0,-0.65733 0.13867,-1.1548 0.428,-1.48027c0.288,-0.324 0.664,-0.49067 1.13467,-0.49067c0.48,0 0.868,0.16667 1.15867,0.49747c0.296,0.33067 0.444,0.82387 0.444,1.47347l0,5.29577c0,0.76301 0.05867,1.40416 0.17733,1.92292c0.132,0.52395 0.35333,0.92916 0.676,1.22656c0.31467,0.29479 0.75333,0.43749 1.3,0.43749c0.53867,0 1.04133,-0.16667 1.50933,-0.49375c0.47733,-0.32917 0.82133,-0.75833 1.036,-1.29167c0.18,-0.47084 0.26667,-1.49479 0.26667,-3.0776l0,-4.01973c0,-0.6496 0.14533,-1.1428 0.44267,-1.47347c0.29067,-0.3308 0.672,-0.49747 1.14267,-0.49747c0.47467,0 0.852,0.16667 1.13867,0.49067c0.284,0.32547 0.424,0.82293 0.424,1.48027l0,9.57441c0,0.62969 -0.13333,1.10573 -0.40933,1.41355c-0.27067,0.31875 -0.62133,0.47448 -1.06,0.47448c-0.42933,0 -0.788,-0.16667 -1.06933,-0.48907c-0.28133,-0.33229 -0.42267,-0.78281 -0.42267,-1.37864"/>
  <path fill-rule="nonzero" fill="#231f20" id="path16" d="m289.91999,860.36553c0,1.31303 0.28667,2.32136 0.85867,3.03021c0.57867,0.70416 1.33333,1.06145 2.272,1.06145c0.79867,0 1.484,-0.36511 2.06133,-1.08541c0.58133,-0.7224 0.86267,-1.75313 0.86267,-3.10261c0,-0.87864 -0.12,-1.6276 -0.35733,-2.25316c-0.24133,-0.6348 -0.58267,-1.12027 -1.02,-1.45987c-0.448,-0.34267 -0.956,-0.5188 -1.54667,-0.5188c-0.60667,0 -1.13867,0.17613 -1.60933,0.5188c-0.47733,0.3396 -0.84667,0.83853 -1.11733,1.488c-0.27067,0.64275 -0.404,1.41827 -0.404,2.32139zm-0.15067,-9.82285l0,5.04947c0.588,-0.65107 1.2,-1.14173 1.81733,-1.49227c0.62,-0.33853 1.388,-0.51453 2.3,-0.51453c1.04933,0 1.968,0.26507 2.76533,0.7812c0.792,0.52653 1.41067,1.2776 1.84667,2.26667c0.43733,0.98547 0.656,2.15992 0.656,3.51461c0,1.00416 -0.12267,1.92135 -0.36533,2.76145c-0.244,0.83229 -0.596,1.55313 -1.06,2.17084c-0.46533,0.61197 -1.03067,1.08125 -1.68933,1.42656c-0.664,0.33177 -1.39333,0.5 -2.18533,0.5c-0.48933,0 -0.948,-0.05989 -1.38,-0.18125c-0.432,-0.12135 -0.8,-0.27864 -1.09333,-0.48437c-0.30533,-0.18907 -0.56267,-0.39427 -0.77333,-0.60364c-0.21467,-0.21199 -0.49333,-0.52396 -0.83867,-0.94532l0,0.325c0,0.62708 -0.14667,1.0948 -0.43333,1.41355c-0.28267,0.31875 -0.65067,0.47604 -1.088,0.47604c-0.45067,0 -0.804,-0.15729 -1.076,-0.47604c-0.26533,-0.32656 -0.39467,-0.79323 -0.39467,-1.41355l0,-14.43441c0,-0.664 0.12667,-1.17187 0.388,-1.51347c0.25733,-0.34533 0.61333,-0.51613 1.08267,-0.51613c0.484,0 0.86267,0.1656 1.12267,0.49733c0.26533,0.32293 0.39867,0.7828 0.39867,1.39227"/>
  <path fill-rule="nonzero" fill="#231f20" id="path18" d="m301.38665,864.9947l0,-14.32923c0,-0.664 0.14267,-1.16293 0.42133,-1.50413c0.28667,-0.33747 0.66667,-0.50827 1.14267,-0.50827c0.48267,0 0.87067,0.16667 1.16133,0.50413c0.292,0.33333 0.44133,0.8416 0.44133,1.50827l0,14.32923c0,0.67187 -0.152,1.17604 -0.448,1.51197c-0.29467,0.33177 -0.68267,0.5 -1.15467,0.5c-0.46267,0 -0.836,-0.17188 -1.12667,-0.52292c-0.292,-0.34896 -0.43733,-0.84115 -0.43733,-1.48905"/>
  <path fill-rule="nonzero" fill="#231f20" id="path20" d="m310.99065,855.44934l0,9.54536c0,0.66667 -0.15467,1.16667 -0.45067,1.50676c-0.30267,0.33333 -0.688,0.50521 -1.14933,0.50521c-0.46533,0 -0.84267,-0.17188 -1.132,-0.51719c-0.28933,-0.35469 -0.432,-0.84688 -0.432,-1.49479l0,-9.45203c0,-0.6496 0.14267,-1.1428 0.432,-1.47347c0.28933,-0.3308 0.66667,-0.49747 1.132,-0.49747c0.46133,0 0.84667,0.16667 1.14933,0.49747c0.296,0.33067 0.45067,0.7896 0.45067,1.38013zm-1.568,-3.41973c-0.44,0 -0.81467,-0.13747 -1.13333,-0.42707c-0.30667,-0.28133 -0.46267,-0.68547 -0.46267,-1.20107c0,-0.46827 0.156,-0.8484 0.476,-1.15733c0.32,-0.30147 0.696,-0.4468 1.12,-0.4468c0.41067,0 0.776,0.13427 1.09067,0.4052c0.316,0.27493 0.47733,0.6828 0.47733,1.19893c0,0.5104 -0.15867,0.90933 -0.464,1.1916c-0.30933,0.28707 -0.67467,0.43653 -1.104,0.43653"/>
  <path fill-rule="nonzero" fill="#231f20" id="path22" d="m325.60532,862.91345c0,0.41041 -0.11733,0.85312 -0.352,1.31875c-0.24,0.47031 -0.59867,0.91303 -1.084,1.33593c-0.48133,0.42396 -1.09067,0.76667 -1.82533,1.0224c-0.732,0.25989 -1.56533,0.38959 -2.47867,0.38959c-1.96133,0 -3.484,-0.59636 -4.584,-1.78541c-1.09867,-1.19063 -1.648,-2.78543 -1.648,-4.78543c0,-1.35312 0.25067,-2.55887 0.75067,-3.59473c0.50533,-1.036 1.23333,-1.848 2.184,-2.41467c0.95067,-0.5708 2.08667,-0.85573 3.40667,-0.85573c0.82267,0 1.57867,0.1292 2.26,0.37453c0.68533,0.25467 1.26533,0.57867 1.74,0.9692c0.47333,0.39587 0.83867,0.8172 1.088,1.26667c0.25867,0.44693 0.37867,0.86253 0.37867,1.25053c0,0.39067 -0.144,0.7256 -0.42267,1.00427c-0.284,0.27441 -0.62267,0.41348 -1.02533,0.41348c-0.26667,0 -0.48533,-0.07865 -0.65733,-0.21875c-0.17067,-0.1386 -0.36933,-0.35993 -0.58267,-0.68127c-0.388,-0.60827 -0.79733,-1.0724 -1.216,-1.3844c-0.42267,-0.3052 -0.95867,-0.4624 -1.60133,-0.4624c-0.94,0 -1.69867,0.38533 -2.26933,1.14947c-0.56667,0.7676 -0.856,1.80776 -0.856,3.13172c0,0.62031 0.07867,1.19584 0.224,1.71459c0.14533,0.52292 0.35867,0.96301 0.632,1.33229c0.28133,0.37031 0.61467,0.64635 1.01333,0.83176c0.39333,0.1948 0.82533,0.28699 1.29467,0.28699c0.64,0 1.18,-0.14844 1.63333,-0.45729c0.45467,-0.30937 0.85067,-0.77864 1.19733,-1.4c0.19733,-0.38177 0.40667,-0.66667 0.63067,-0.88177c0.224,-0.21041 0.5,-0.30781 0.82267,-0.30781c0.388,0 0.70533,0.14792 0.96533,0.45313c0.25067,0.31353 0.38133,0.63645 0.38133,0.98437"/>
  <path fill-rule="nonzero" fill="#231f20" id="path24" d="m330.81865,860.26917c0,0.89324 0.132,1.65469 0.40133,2.28959c0.26533,0.62813 0.62667,1.09584 1.09067,1.41459c0.468,0.32552 0.97067,0.48385 1.51867,0.48385c0.55733,0 1.06667,-0.15573 1.52533,-0.45312c0.46133,-0.30521 0.82533,-0.77188 1.104,-1.39636c0.27333,-0.6224 0.40667,-1.40521 0.40667,-2.33855c0,-0.88385 -0.13333,-1.63853 -0.40667,-2.27183c-0.27867,-0.6376 -0.64533,-1.1172 -1.11467,-1.45893c-0.468,-0.33333 -0.98133,-0.50107 -1.536,-0.50107c-0.576,0 -1.09333,0.17613 -1.552,0.5188c-0.45333,0.3396 -0.81067,0.836 -1.05733,1.47707c-0.25333,0.64273 -0.38,1.38024 -0.38,2.23596zm6.224,4.84792l0,-0.325c-0.42267,0.50937 -0.844,0.92396 -1.25867,1.23751c-0.41067,0.32083 -0.864,0.56353 -1.34533,0.7302c-0.48,0.15885 -1.01067,0.24688 -1.58133,0.24688c-0.75467,0 -1.46133,-0.16823 -2.104,-0.5c-0.64533,-0.34531 -1.20267,-0.81719 -1.672,-1.44011c-0.47333,-0.61719 -0.83333,-1.34948 -1.07867,-2.19219c-0.244,-0.83697 -0.364,-1.74219 -0.364,-2.72656c0,-2.05995 0.484,-3.67715 1.45333,-4.83181c0.96533,-1.152 2.23733,-1.73067 3.812,-1.73067c0.912,0 1.68267,0.16667 2.308,0.5c0.62667,0.31973 1.23867,0.824 1.83067,1.5068l0,-4.88027c0,-0.67707 0.12667,-1.1916 0.388,-1.53587c0.26,-0.348 0.62533,-0.52293 1.10667,-0.52293c0.476,0 0.84667,0.164 1.10667,0.4776c0.26,0.3172 0.396,0.7896 0.396,1.412l0,14.57441c0,0.62969 -0.14667,1.10573 -0.42267,1.41355c-0.27867,0.31875 -0.63733,0.47604 -1.08,0.47604c-0.42667,0 -0.78933,-0.16563 -1.076,-0.49063c-0.276,-0.32396 -0.41867,-0.78697 -0.41867,-1.39896"/>
  <path fill-rule="nonzero" fill="#231f20" id="path26" d="m351.89065,860.29313c0,-1.34115 -0.28533,-2.39325 -0.856,-3.14272c-0.568,-0.7464 -1.336,-1.1276 -2.28667,-1.1276c-0.62533,0 -1.16933,0.17187 -1.64,0.5036c-0.46933,0.33907 -0.83333,0.83333 -1.08933,1.4896c-0.25467,0.64536 -0.38533,1.40525 -0.38533,2.27712c0,0.86667 0.13067,1.61876 0.38,2.26563c0.25333,0.64271 0.612,1.13751 1.08133,1.48229c0.46267,0.33907 1.02,0.50833 1.65333,0.50833c0.95067,0 1.71867,-0.37344 2.28667,-1.12656c0.57067,-0.74948 0.856,-1.79896 0.856,-3.12969zm3.17467,0c0,0.98125 -0.14533,1.88959 -0.44,2.72709c-0.29333,0.82083 -0.71867,1.54115 -1.27333,2.13853c-0.55733,0.59844 -1.224,1.04532 -1.99733,1.37188c-0.77333,0.31875 -1.648,0.47604 -2.60667,0.47604c-0.95867,0 -1.82267,-0.15729 -2.588,-0.48645c-0.76667,-0.31772 -1.428,-0.78281 -1.99333,-1.38281c-0.55867,-0.60417 -0.984,-1.30833 -1.276,-2.12657c-0.29067,-0.82552 -0.432,-1.72708 -0.432,-2.72135c0,-1 0.152,-1.91348 0.43733,-2.74428c0.29733,-0.83173 0.716,-1.54013 1.26667,-2.13333c0.552,-0.5864 1.21333,-1.04373 1.99733,-1.3588c0.784,-0.31987 1.64267,-0.48133 2.588,-0.48133c0.95867,0 1.828,0.16147 2.60667,0.48547c0.77867,0.32133 1.448,0.78387 2.00533,1.3812c0.55733,0.59893 0.98133,1.31093 1.268,2.13333c0.29733,0.82293 0.43733,1.73076 0.43733,2.72139"/>
  <path fill-rule="nonzero" fill="#231f20" id="path28" d="m368.44132,857.56401c-0.23733,0.56147 -0.34933,1.54683 -0.34933,2.96403l0,4.39219c0,0.69061 -0.15333,1.21457 -0.45867,1.56353c-0.3,0.35104 -0.69733,0.52292 -1.19467,0.52292c-0.47467,0 -0.86267,-0.17188 -1.16,-0.52292c-0.296,-0.34896 -0.44533,-0.87292 -0.44533,-1.56353l0,-5.26824c0,-0.82916 -0.028,-1.47597 -0.08267,-1.94011c-0.05467,-0.45733 -0.2,-0.83747 -0.44,-1.13173c-0.23733,-0.29747 -0.61733,-0.44533 -1.136,-0.44533c-1.036,0 -1.71067,0.37187 -2.04933,1.11973c-0.328,0.7428 -0.48667,1.80787 -0.48667,3.19744l0,4.46824c0,0.68905 -0.15067,1.20885 -0.44533,1.55468c-0.29733,0.35989 -0.69067,0.53177 -1.17467,0.53177c-0.48133,0 -0.88,-0.17188 -1.18267,-0.53177c-0.304,-0.34583 -0.44933,-0.86563 -0.44933,-1.55104l0,-9.45985c0,-0.62293 0.12667,-1.09587 0.4,-1.4136c0.27867,-0.32133 0.63867,-0.488 1.08933,-0.488c0.432,0 0.796,0.1484 1.08267,0.4536c0.292,0.30107 0.43733,0.7172 0.43733,1.25213l0,0.31453c0.54533,-0.6896 1.13867,-1.19213 1.75867,-1.51347c0.62667,-0.31987 1.328,-0.48387 2.088,-0.48387c0.79733,0 1.47733,0.16667 2.04933,0.5c0.576,0.32653 1.04133,0.82813 1.41467,1.49733c0.53333,-0.67333 1.10667,-1.1828 1.71867,-1.50667c0.61467,-0.32667 1.284,-0.49067 2.02267,-0.49067c0.876,0 1.61733,0.176 2.24,0.53493c0.63067,0.35573 1.096,0.85987 1.40667,1.52387c0.27333,0.59853 0.40533,1.53853 0.40533,2.82133l0,6.45475c0,0.69061 -0.148,1.21457 -0.44667,1.56353c-0.31067,0.35104 -0.70133,0.52292 -1.20133,0.52292c-0.47867,0 -0.86933,-0.17188 -1.172,-0.53177c-0.30933,-0.34583 -0.46533,-0.86563 -0.46533,-1.55468l0,-5.56303c0,-0.70677 -0.02667,-1.27599 -0.084,-1.70265c-0.06,-0.43333 -0.21333,-0.78907 -0.47333,-1.0812c-0.25067,-0.29067 -0.644,-0.43853 -1.15733,-0.43853c-0.416,0 -0.812,0.13333 -1.18133,0.3864c-0.38533,0.26147 -0.66667,0.60787 -0.87733,1.0428l0,0"/>
  <path fill-rule="nonzero" fill="#231f20" id="path30" d="m386.37065,860.3572c-0.46667,0.18021 -1.14133,0.36667 -2.02667,0.56667c-0.88533,0.19896 -1.5,0.33855 -1.84133,0.43593c-0.34,0.09636 -0.664,0.27344 -0.97067,0.54271c-0.312,0.27865 -0.46933,0.65625 -0.46933,1.13855c0,0.50417 0.18267,0.92708 0.548,1.27865c0.36667,0.35624 0.84,0.52552 1.42933,0.52552c0.62267,0 1.20533,-0.14272 1.73467,-0.43333c0.528,-0.27969 0.91867,-0.65573 1.16133,-1.10521c0.288,-0.5 0.43467,-1.32136 0.43467,-2.47864l0,-0.47084zm0.208,4.78803c-0.77067,0.62135 -1.51067,1.08385 -2.22667,1.39219c-0.71067,0.31301 -1.51333,0.46927 -2.40133,0.46927c-0.81733,0 -1.52533,-0.16823 -2.14267,-0.5c-0.61467,-0.33593 -1.088,-0.79063 -1.424,-1.36927c-0.32667,-0.57344 -0.49733,-1.18699 -0.49733,-1.86147c0,-0.9052 0.28267,-1.67083 0.828,-2.31041c0.54667,-0.63073 1.29867,-1.06407 2.25733,-1.28437c0.2,-0.04636 0.70267,-0.15052 1.49733,-0.32396c0.8,-0.17031 1.47867,-0.32396 2.052,-0.46145c0.56533,-0.14115 1.18533,-0.31199 1.84933,-0.51307c-0.04133,-0.876 -0.208,-1.5172 -0.50267,-1.93227c-0.3,-0.40253 -0.92267,-0.6036 -1.852,-0.6036c-0.80933,0 -1.41067,0.11453 -1.82267,0.34947c-0.404,0.23013 -0.74933,0.5864 -1.03867,1.05827c-0.292,0.46667 -0.49733,0.77613 -0.61733,0.92293c-0.12267,0.15467 -0.37733,0.21987 -0.77067,0.21987c-0.35733,0 -0.66133,-0.1136 -0.91733,-0.34947c-0.26533,-0.2396 -0.39067,-0.5412 -0.39067,-0.9188c0,-0.5812 0.196,-1.14893 0.592,-1.69067c0.39333,-0.55053 1.00667,-1.00107 1.84,-1.3624c0.836,-0.3548 1.87867,-0.53187 3.12533,-0.53187c1.388,0 2.48267,0.17707 3.28667,0.51827c0.792,0.33747 1.34933,0.87867 1.68267,1.62707c0.328,0.73693 0.492,1.72507 0.492,2.95209c0,0.77188 0,1.43593 -0.00533,1.97448c-0.008,0.54375 -0.008,1.14532 -0.01867,1.80417c0,0.62083 0.10267,1.27031 0.29733,1.94271c0.19333,0.67291 0.292,1.10781 0.292,1.29844c0,0.34009 -0.15333,0.65208 -0.45867,0.92916c-0.29733,0.27344 -0.64533,0.41615 -1.03067,0.41615c-0.33067,0 -0.64667,-0.15729 -0.96933,-0.47604c-0.31467,-0.31875 -0.65067,-0.78385 -1.00533,-1.38541"/>
  <path fill-rule="nonzero" fill="#231f20" id="path32" d="m395.85998,855.44934l0,9.54536c0,0.66667 -0.15067,1.16667 -0.45067,1.50676c-0.29867,0.33333 -0.68267,0.50521 -1.14533,0.50521c-0.464,0 -0.84667,-0.17188 -1.13333,-0.51719c-0.292,-0.35469 -0.43467,-0.84688 -0.43467,-1.49479l0,-9.45203c0,-0.6496 0.14267,-1.1428 0.43467,-1.47347c0.28667,-0.3308 0.66933,-0.49747 1.13333,-0.49747c0.46267,0 0.84667,0.16667 1.14533,0.49747c0.3,0.33067 0.45067,0.7896 0.45067,1.38013zm-1.56533,-3.41973c-0.43733,0 -0.80933,-0.13747 -1.12533,-0.42707c-0.31733,-0.28133 -0.47333,-0.68547 -0.47333,-1.20107c0,-0.46827 0.164,-0.8484 0.484,-1.15733c0.31867,-0.30147 0.69333,-0.4468 1.11467,-0.4468c0.412,0 0.77867,0.13427 1.09467,0.4052c0.312,0.27493 0.47067,0.6828 0.47067,1.19893c0,0.5104 -0.15333,0.90933 -0.46133,1.1916c-0.312,0.28707 -0.676,0.43653 -1.104,0.43653"/>
  <path fill-rule="nonzero" fill="#231f20" id="path34" d="m402.01332,855.39988l0,0.3948c0.54933,-0.76147 1.16133,-1.32547 1.82,-1.6828c0.66533,-0.35987 1.42,-0.54013 2.284,-0.54013c0.83333,0 1.58133,0.1896 2.24267,0.57347c0.65067,0.376 1.14533,0.9068 1.472,1.6016c0.20267,0.40773 0.33467,0.84627 0.40267,1.312c0.05467,0.46667 0.092,1.05987 0.092,1.78797l0,6.14792c0,0.66667 -0.14933,1.16667 -0.436,1.50676c-0.29067,0.33333 -0.668,0.50521 -1.12933,0.50521c-0.472,0 -0.85467,-0.17188 -1.14133,-0.52292c-0.296,-0.34896 -0.448,-0.84115 -0.448,-1.48905l0,-5.50261c0,-1.09475 -0.14,-1.92808 -0.42667,-2.50155c-0.3,-0.57707 -0.87733,-0.86667 -1.74533,-0.86667c-0.55867,0 -1.07467,0.176 -1.54133,0.52813c-0.46,0.34947 -0.804,0.83173 -1.01733,1.44533c-0.15733,0.49059 -0.23467,1.40933 -0.23467,2.76403l0,4.13333c0,0.67187 -0.14933,1.17604 -0.448,1.51197c-0.29733,0.33177 -0.68267,0.5 -1.15333,0.5c-0.45067,0 -0.828,-0.17188 -1.12,-0.51719c-0.30267,-0.35469 -0.44267,-0.84688 -0.44267,-1.49479l0,-9.54536c0,-0.6296 0.12667,-1.09893 0.39333,-1.41093c0.26,-0.30933 0.62667,-0.46667 1.08,-0.46667c0.27333,0 0.52933,0.07093 0.75067,0.2068c0.22933,0.13333 0.40267,0.34533 0.54133,0.612c0.13067,0.2828 0.20533,0.61453 0.20533,1.00933"/>
  <path fill-rule="nonzero" fill="#231f20" id="path36" d="m415.40665,855.62801l2.55733,7.50263l2.76267,-7.83076c0.22133,-0.62653 0.43333,-1.0708 0.644,-1.3344c0.21333,-0.2588 0.52267,-0.39373 0.948,-0.39373c0.404,0 0.744,0.13907 1.03067,0.42813c0.27867,0.28027 0.42267,0.6016 0.42267,0.98027c0,0.14373 -0.02933,0.3104 -0.08133,0.5c-0.044,0.1984 -0.104,0.3812 -0.172,0.552c-0.06533,0.16413 -0.132,0.36253 -0.224,0.5772l-3.03867,7.86816c-0.08667,0.225 -0.19867,0.51459 -0.33067,0.86095c-0.13867,0.34427 -0.28933,0.63645 -0.456,0.89063c-0.16667,0.24271 -0.36933,0.43072 -0.60933,0.56979c-0.248,0.13855 -0.54133,0.20781 -0.896,0.20781c-0.44533,0 -0.804,-0.10521 -1.07067,-0.31979c-0.268,-0.21511 -0.46533,-0.44532 -0.59067,-0.70573c-0.12533,-0.24792 -0.344,-0.75208 -0.64533,-1.50365l-3.01867,-7.78123c-0.07067,-0.19227 -0.14,-0.388 -0.21867,-0.58027c-0.07067,-0.1932 -0.128,-0.388 -0.18267,-0.59213c-0.044,-0.20787 -0.072,-0.37973 -0.072,-0.5188c0,-0.22907 0.064,-0.452 0.19733,-0.6744c0.13333,-0.22293 0.31733,-0.40947 0.54667,-0.54693c0.232,-0.14107 0.48,-0.212 0.756,-0.212c0.52267,0 0.88267,0.15733 1.08267,0.47867c0.19733,0.3084 0.41867,0.83747 0.65867,1.5776"/>
  <path fill-rule="nonzero" fill="#231f20" id="path40" d="m451.18798,862.91345c0,0.41041 -0.11467,0.85312 -0.35467,1.31875c-0.23867,0.47031 -0.59067,0.91303 -1.07733,1.33593c-0.484,0.42396 -1.096,0.76667 -1.83333,1.0224c-0.72933,0.25989 -1.56,0.38959 -2.47733,0.38959c-1.95733,0 -3.48667,-0.59636 -4.58267,-1.78541c-1.09333,-1.19063 -1.648,-2.78543 -1.648,-4.78543c0,-1.35312 0.252,-2.55887 0.75733,-3.59473c0.50267,-1.036 1.224,-1.848 2.17733,-2.41467c0.95067,-0.5708 2.09067,-0.85573 3.41333,-0.85573c0.81867,0 1.56533,0.1292 2.256,0.37453c0.68133,0.25467 1.25733,0.57867 1.74133,0.9692c0.47467,0.39587 0.836,0.8172 1.08933,1.26667c0.24667,0.44693 0.37467,0.86253 0.37467,1.25053c0,0.39067 -0.13733,0.7256 -0.42933,1.00427c-0.27867,0.27441 -0.61733,0.41348 -1.02133,0.41348c-0.26267,0 -0.47867,-0.07865 -0.65067,-0.21875c-0.18,-0.1386 -0.36933,-0.35993 -0.59067,-0.68127c-0.388,-0.60827 -0.78933,-1.0724 -1.20933,-1.3844c-0.424,-0.3052 -0.96,-0.4624 -1.60933,-0.4624c-0.932,0 -1.68933,0.38533 -2.26,1.14947c-0.576,0.7676 -0.85733,1.80776 -0.85733,3.13172c0,0.62031 0.076,1.19584 0.21867,1.71459c0.14667,0.52292 0.36,0.96301 0.63867,1.33229c0.27867,0.37031 0.61733,0.64635 1.01333,0.83176c0.388,0.1948 0.82267,0.28699 1.296,0.28699c0.63067,0 1.17733,-0.14844 1.63067,-0.45729c0.45067,-0.30937 0.852,-0.77864 1.20267,-1.4c0.19333,-0.38177 0.396,-0.66667 0.62267,-0.88177c0.224,-0.21041 0.49467,-0.30781 0.82533,-0.30781c0.38267,0 0.70667,0.14792 0.95333,0.45313c0.26267,0.31353 0.39067,0.63645 0.39067,0.98437"/>
  <path fill-rule="nonzero" fill="#231f20" id="path42" d="m454.13065,853.85041l0.34933,0l0,-1.98747c0,-0.5256 0.01333,-0.95107 0.04133,-1.24947c0.02667,-0.3052 0.09333,-0.5604 0.22667,-0.77867c0.12,-0.224 0.3,-0.412 0.53333,-0.5536c0.22667,-0.1396 0.488,-0.2052 0.772,-0.2052c0.4,0 0.76533,0.15467 1.09067,0.46813c0.21333,0.212 0.352,0.4652 0.412,0.76413c0.056,0.3052 0.08533,0.73853 0.08533,1.29427l0,2.24787l1.16133,0c0.448,0 0.792,0.112 1.02667,0.33333c0.23867,0.22133 0.356,0.50413 0.356,0.85107c0,0.44533 -0.16667,0.75987 -0.508,0.93333c-0.33333,0.176 -0.81733,0.26507 -1.44267,0.26507l-0.59333,0l0,6.08649c0,0.52031 0.016,0.91353 0.04933,1.19635c0.04133,0.28125 0.13867,0.50677 0.28933,0.67448c0.14267,0.17604 0.39067,0.26667 0.73467,0.26667c0.18133,0 0.432,-0.03333 0.752,-0.10364c0.312,-0.06824 0.56,-0.10313 0.74,-0.10313c0.25467,0 0.48933,0.11251 0.68933,0.31355c0.204,0.22135 0.31067,0.48125 0.31067,0.79583c0,0.53333 -0.276,0.94011 -0.83333,1.22396c-0.56533,0.28021 -1.36267,0.42292 -2.404,0.42292c-0.98933,0 -1.74267,-0.17188 -2.24933,-0.52292c-0.51067,-0.34896 -0.84933,-0.82239 -1.00267,-1.44531c-0.16,-0.61303 -0.23733,-1.42917 -0.23733,-2.45313l0,-6.35211l-0.424,0c-0.448,0 -0.79733,-0.10933 -1.03733,-0.34013c-0.24133,-0.2224 -0.36133,-0.50933 -0.36133,-0.85827c0,-0.34693 0.12667,-0.62973 0.37467,-0.85107c0.25467,-0.22133 0.62,-0.33333 1.09867,-0.33333"/>
  <path fill-rule="nonzero" fill="#231f20" id="path44" d="m471.03198,860.29313c0,-1.34115 -0.284,-2.39325 -0.852,-3.14272c-0.568,-0.7464 -1.328,-1.1276 -2.28933,-1.1276c-0.61867,0 -1.164,0.17187 -1.63467,0.5036c-0.47467,0.33907 -0.836,0.83333 -1.08933,1.4896c-0.25467,0.64536 -0.38533,1.40525 -0.38533,2.27712c0,0.86667 0.13067,1.61876 0.38133,2.26563c0.24933,0.64271 0.60667,1.13751 1.07467,1.48229c0.46667,0.33907 1.016,0.50833 1.65333,0.50833c0.96133,0 1.72133,-0.37344 2.28933,-1.12656c0.568,-0.74948 0.852,-1.79896 0.852,-3.12969zm3.18267,0c0,0.98125 -0.152,1.88959 -0.44533,2.72709c-0.292,0.82083 -0.72133,1.54115 -1.27333,2.13853c-0.55733,0.59844 -1.224,1.04532 -1.996,1.37188c-0.776,0.31875 -1.63733,0.47604 -2.60933,0.47604c-0.96267,0 -1.828,-0.15729 -2.588,-0.48645c-0.76533,-0.31772 -1.432,-0.78281 -1.98667,-1.38281c-0.56,-0.60417 -0.98667,-1.30833 -1.27333,-2.12657c-0.28933,-0.82552 -0.432,-1.72708 -0.432,-2.72135c0,-1 0.14267,-1.91348 0.432,-2.74428c0.30133,-0.83173 0.71333,-1.54013 1.26533,-2.13333c0.552,-0.5864 1.216,-1.04373 1.99467,-1.3588c0.78933,-0.31987 1.648,-0.48133 2.588,-0.48133c0.96133,0 1.824,0.16147 2.60933,0.48547c0.78133,0.32133 1.44533,0.78387 2.00533,1.3812c0.552,0.59893 0.98533,1.31093 1.272,2.13333c0.28533,0.82293 0.43733,1.73076 0.43733,2.72139"/>
  <path fill-rule="nonzero" fill="#231f20" id="path46" d="m479.85465,862.24261l0,2.75209c0,0.67187 -0.15067,1.17604 -0.456,1.51197c-0.30133,0.33177 -0.684,0.5 -1.15067,0.5c-0.45067,0 -0.83067,-0.17188 -1.12267,-0.50521c-0.29333,-0.34009 -0.43733,-0.84009 -0.43733,-1.50676l0,-9.19736c0,-1.48547 0.51067,-2.2256 1.53867,-2.2256c0.524,0 0.90667,0.1776 1.14133,0.52293c0.22667,0.34267 0.34933,0.85893 0.38,1.53333c0.37733,-0.6744 0.768,-1.19067 1.16667,-1.53333c0.40133,-0.34533 0.92667,-0.52293 1.59067,-0.52293c0.672,0 1.31067,0.1776 1.94,0.52293c0.62533,0.34267 0.94133,0.8052 0.94133,1.376c0,0.40533 -0.13867,0.7428 -0.40133,1c-0.26533,0.2584 -0.55467,0.3948 -0.868,0.3948c-0.11467,0 -0.39333,-0.07493 -0.84,-0.22707c-0.44533,-0.14787 -0.836,-0.22493 -1.17733,-0.22493c-0.46133,0 -0.844,0.12493 -1.13333,0.38387c-0.292,0.2572 -0.52267,0.62907 -0.688,1.13173c-0.16133,0.5016 -0.27867,1.09375 -0.33733,1.78957c-0.05733,0.68385 -0.08667,1.52552 -0.08667,2.52396"/>
  <path fill-rule="nonzero" fill="#231f20" id="path58" d="m404.21998,823.81188l4.7,0c-0.33333,2.53333 -1.372,4.512 -3.096,5.93227c-1.6,1.39173 -3.532,2.08133 -5.79467,2.08133c-3.06267,0 -5.51333,-1.0776 -7.33867,-3.22813c-1.73467,-2.0428 -2.59867,-4.688 -2.59867,-7.9104c0,-3.3084 0.85867,-5.9496 2.57467,-7.95213c1.70933,-1.99213 4.13333,-2.9948 7.25867,-2.9948c2.328,0 4.29867,0.63173 5.89867,1.8812c1.69467,1.34947 2.72933,3.24533 3.096,5.67867l-4.7,0c-0.40133,-2.1224 -1.70133,-3.17867 -3.90667,-3.17867c-3.62533,0 -5.44533,2.1532 -5.44533,6.45627c0,2.01467 0.468,3.6584 1.40133,4.94373c0.93467,1.28707 2.24933,1.92813 3.95067,1.92813c2.53067,0 3.864,-1.212 4,-3.63747zm-18.488,-2.96147c0,4.20413 1.33333,7.76413 3.99733,10.65733c2.664,2.9016 5.92267,4.352 9.792,4.352c3.85467,0 7.12267,-1.4504 9.78133,-4.352c2.66933,-2.8932 3.99467,-6.4532 3.99467,-10.65733c0,-4.20107 -1.32533,-7.75467 -3.99467,-10.65413c-2.65867,-2.90413 -5.92667,-4.3536 -9.78133,-4.3536c-3.86933,0 -7.128,1.44947 -9.792,4.3536c-2.664,2.89947 -3.99733,6.45307 -3.99733,10.65413zm-4.768,0c0,-5.34787 1.808,-9.90933 5.42933,-13.7052c3.628,-3.78547 8.00267,-5.67867 13.128,-5.67867c5.12,0 9.48933,1.8932 13.11733,5.67867c3.628,3.79587 5.44,8.35733 5.44,13.7052c0,5.35213 -1.812,9.92707 -5.44,13.7084c-3.628,3.78907 -7.99733,5.68387 -13.11733,5.68387c-5.12533,0 -9.5,-1.8948 -13.128,-5.68387c-3.62133,-3.78133 -5.42933,-8.35627 -5.42933,-13.7084"/>
  <path fill-rule="nonzero" fill="#231f20" id="path60" d="m388.47198,833.00775l2.70533,2.29627l19.90667,-25.56133l-2.70533,-2.29227l-19.90667,25.55733"/>
  <path fill-rule="nonzero" fill="#f3f470" id="path62" d="m621.22397,317.06804c-1.11067,-20.71333 -17.56267,-34.83333 -44.01066,-37.77066c-13.53867,-1.504 -33.37867,-2.228 -50.544,-1.83867c-23.56533,0.53067 -31.50533,2.77467 -33.32133,3.41867c-1.32533,5.07867 -1.20667,18.65333 -0.408,29.268c6.896,-0.34933 13.85867,-0.60933 20.59733,-0.86133l0.14267,-0.00533c11.012,-0.37467 20.04667,-0.536 28.43333,-0.512c4.264,0.028 9.304,0.09067 14.364,0.35067c5.05333,0.21467 9.84933,0.628 14.65867,1.264c2.35867,0.336 4.91467,0.74267 7.65733,1.43467c2.56533,0.65867 5.324,1.43333 8.37333,3.01333l1.132,0.62133c0.30533,0.176 0.61333,0.396 0.91867,0.61333l0.30267,0.21467c0.136,0.10267 0.252,0.184 0.36667,0.26533c0.27333,0.19467 0.556,0.39733 0.86667,0.69067c0.41067,0.37333 0.816,0.764 1.21067,1.164c0.37333,0.33733 0.75067,0.85733 1.11467,1.35733l0.32533,0.46133c0.288,0.41067 0.58667,0.83467 0.85867,1.42933c0.15733,0.316 0.332,0.688 0.45333,0.992l0.284,0.792c0.16533,0.46 0.25733,0.81333 0.352,1.17333l0.068,0.26133c0.448,1.81867 0.63867,3.29867 0.784,4.544c0.14267,1.31467 0.248,2.61067 0.32,3.96533c0.22933,5.34933 0.08933,10.48267 -0.07333,14.8c-0.29467,5.66533 -0.608,10.22933 -0.98267,14.37467c-0.86667,9.54667 -2.016,19.088 -3.41333,28.36133c-1.49733,9.93067 -3.12,19.11467 -4.96667,28.076c-1.71733,8.22 -3.86667,17.952 -6.784,27.80267l-0.892,3.01067l-0.12133,-3.136c-0.724,-18.71733 -0.24933,-36.836 0.39333,-56.884l1.13467,-30.94933c0.128,-3.65867 0.25867,-7.444 0.29867,-11.132c0.08933,-3.84933 0.16,-8.85733 -0.08667,-13.536c-0.04533,-1.072 -0.116,-2.11467 -0.21067,-3.10533c-0.084,-0.86267 -0.21333,-1.75467 -0.34533,-2.35867c-0.01733,-0.012 -0.032,-0.02533 -0.04667,-0.04c0,0.01467 -0.048,-0.03067 -0.10267,-0.07733c-0.028,-0.02133 -0.056,-0.04933 -0.1,-0.07467l-0.40667,-0.23867c-1.05333,-0.62 -2.78133,-1.292 -4.86667,-1.892c-1.56933,-0.464 -3.24533,-0.82 -5.01867,-1.196l-1.21067,-0.25733c-7.29467,-1.384 -15.17733,-2.32933 -22.79867,-3.244c-1.524,-0.18267 -3.048,-0.36533 -4.572,-0.55333l-0.22667,-0.02667c-15.74667,-1.908 -32.02267,-3.88 -47.89333,-7.49733c0.53733,5.64133 1.24933,10.02 2.024,12.43733c3.968,0.79333 13.93467,0.58533 21.256,0.43067c16.568,-0.344 35.31733,-0.732 46.92533,4.61333c5.816,2.68 8.44533,9.924 9.376,25.83867c0.59333,10.13867 0.44,23.81867 -0.44,39.56933c-1.44533,25.81467 -5.096,58.716 -8.70267,69.088c-6.52133,18.75867 -38.73066,17.76533 -68.40533,15.36133l-0.25733,-0.02267c-1.92133,-0.15333 -3.652,-0.29333 -4.97733,-0.37733c-1.552,2.32133 -3.488,9.12267 -3.06667,17.332c4.32267,1.088 8.93467,2.11733 14.088,3.14c6.89067,1.35867 13.708,2.51467 20.26267,3.43467c7.388,1.04133 14.09333,1.80667 20.50533,2.34c1.62133,0.136 3.36533,0.276 5.14133,0.368c1.58267,0.108 3.264,0.18533 5.15333,0.236l0.46,0.008c3.22,0.06667 6.548,0.132 9.76133,-0.43067l0.26533,0.99467c-3.19733,1.16 -6.60267,1.68667 -9.89867,2.19867l-0.41333,0.06533c-1.92533,0.28533 -3.63333,0.50533 -5.224,0.67333c-1.79867,0.22133 -3.572,0.38933 -5.22133,0.53867c-6.51333,0.596 -13.37467,1.012 -20.97067,1.268c-6.79333,0.23733 -13.888,0.28 -21.096,0.13333c-2.888,-0.06533 -5.768,-0.16667 -8.57067,-0.3c0.91333,1.26133 1.92933,2.212 3.028,2.832c13.70667,7.74933 68.36266,5.17867 80.82133,1.51333c9.84533,-18.87333 47.20666,-180.45066 46.168,-199.81732m-353.44132,-0.38267c15.108,0 27.39733,-12.28933 27.39733,-27.396c0,-15.108 -12.28933,-27.396 -27.39733,-27.396c-15.10667,0 -27.39467,12.288 -27.39467,27.396c0,15.10667 12.288,27.396 27.39467,27.396m82.70533,0.55333c-8.148,0 -14.77333,6.62667 -14.77333,14.77333c0,8.14533 6.62533,14.772 14.77333,14.772c8.14533,0 14.77067,-6.62667 14.77067,-14.772c0,-8.14667 -6.62533,-14.77333 -14.77067,-14.77333m-40.884,-18.34267c-0.73867,3.208 -1.84133,6.32 -3.28133,9.25333l0.00133,0c0,8.14667 6.62533,14.77467 14.77067,14.77467c3.13467,0 6.13733,-0.988 8.68933,-2.856c1.27333,-2.19867 2.87867,-4.17067 4.77067,-5.864c0.87067,-1.93067 1.31333,-3.96667 1.31333,-6.05467c0,-8.144 -6.62533,-14.772 -14.77333,-14.772c-4.48,0 -8.66133,2.00933 -11.49067,5.51867m-3.61067,9.204l-0.188,0.04667l0.284,0.00133l-0.096,-0.048zm174.15466,-57.772c0,-8.14533 -6.628,-14.772 -14.772,-14.772c-8.148,0 -14.77333,6.62667 -14.77333,14.772c0,8.14667 6.62533,14.77333 14.77333,14.77333c8.144,0 14.772,-6.62667 14.772,-14.77333m-51.19866,36.34933c8.148,0 14.77333,-6.62667 14.77333,-14.77333c0,-8.14533 -6.62533,-14.772 -14.77333,-14.772c-8.14533,0 -14.77333,6.62667 -14.77333,14.772c0,8.14667 6.628,14.77333 14.77333,14.77333m-66.056,-4.39733c-8.144,0 -14.77333,6.62667 -14.77333,14.772c0,4.31867 1.88533,8.39867 5.18,11.21733c3.51733,0.416 6.95333,1.63733 9.956,3.54267c7.96133,-0.19467 14.41067,-6.784 14.41067,-14.76c0,-8.14533 -6.62667,-14.772 -14.77333,-14.772m12.38933,-45.51066c-10.67067,0 -19.352,8.68133 -19.352,19.35333c0,7.392 4.132,14.02533 10.792,17.328c2.08533,0.33733 4.128,0.95733 6.06667,1.84267c0.944,0.124 1.73867,0.18267 2.49333,0.18267c10.67067,0 19.35333,-8.68267 19.35333,-19.35333c0,-10.672 -8.68267,-19.35333 -19.35333,-19.35333m43.164,9.79067c14.78533,0 26.81467,-12.02933 26.81467,-26.81467c0,-14.784 -12.02933,-26.812 -26.81467,-26.812c-14.78267,0 -26.81067,12.028 -26.81067,26.812c0,4.32 1.00667,8.452 2.98933,12.28267c3.156,2.53867 5.74667,5.60533 7.70133,9.12267c4.684,3.53867 10.25733,5.40933 16.12,5.40933m-119.11599,-49.51466c0,23.548 19.15733,42.70533 42.70266,42.70533c2.46533,0 4.97467,-0.22533 7.46933,-0.668c5.50667,-8.30267 14.66267,-13.46133 24.572,-13.84667c0.76667,-0.87067 1.48933,-1.75733 2.14933,-2.63733c-0.072,-1.07333 -0.108,-1.98267 -0.108,-2.85333c0,-9.256 2.948,-18.048 8.52933,-25.44133c-1.428,-22.42533 -20.10933,-39.96266 -42.612,-39.96266c-23.54533,0 -42.70266,19.15733 -42.70266,42.704m14.16667,88.43866c2.45467,-0.82667 5.00933,-1.24533 7.59733,-1.24533c3.36267,0 6.62133,0.692 9.68667,2.05867c8.128,-3.18133 13.57333,-11.12133 13.57333,-19.82533c0,-3.96133 -1.11467,-7.836 -3.22533,-11.22133c-9.79467,-0.152 -19.43467,-2.79333 -27.91733,-7.648c-6.07067,3.17733 -10.244,9.05467 -11.224,15.80667c4.45333,5.87333 7.32133,12.81067 8.31067,20.09067c1.00133,0.75067 2.07333,1.41733 3.19867,1.984m146.05466,-118.33866c18.38533,0 33.34133,-14.95733 33.34133,-33.34267c0,-18.38533 -14.956,-33.344 -33.34133,-33.344c-18.38533,0 -33.344,14.95867 -33.344,33.344c0,18.38533 14.95867,33.34267 33.344,33.34267m0,15.52c-10.51733,0 -20.52,-3.29733 -28.97067,-9.544c-0.884,1.79467 -1.63733,3.63067 -2.24533,5.472c18.832,4.52933 32.44267,21.74667 32.44267,41.152c0,2.408 -0.212,4.84267 -0.62933,7.24933c1.70933,-0.384 3.464,-0.57733 5.22667,-0.57733c5.99333,0 11.712,2.232 16.13733,6.292c17.74,-5.49333 30.10267,-22.22667 30.10267,-40.79866c0,-11.24933 -4.33467,-21.832 -12.22133,-29.87067c-9.184,12.92667 -24.032,20.62533 -39.84266,20.62533m-61.152,-0.18533c4.37733,-2.364 9.09067,-3.91867 14.02,-4.62533c1.43867,-5.78667 3.75467,-11.29467 6.892,-16.38533c-5.644,-8.17867 -8.624,-17.73733 -8.624,-27.66667c0,-9.98133 3.00533,-19.572 8.69867,-27.776c-7.06533,-4.76667 -15.288,-7.284 -23.81867,-7.284c-22.77333,0 -41.81866,18.404 -42.66,41.116c22.10133,4.19333 39.864,20.844 45.492,42.62133m-170.47333,42.88933c0,11.596 4.58,22.424 12.90667,30.544c7.612,-6.156 17.164,-9.54 26.94933,-9.54c7.50667,0 14.884,1.97467 21.376,5.71867c2.42,-5.68133 6.24667,-10.684 11.112,-14.52533c-10.62,-10.93733 -16.46,-25.304 -16.46,-40.52133c0,-3.96533 0.41333,-7.95733 1.22933,-11.87333c-4.62267,-1.664 -9.46667,-2.50667 -14.40667,-2.50667c-23.548,0 -42.70666,19.156 -42.70666,42.704m40.01333,117.93733c0,-3.87867 -0.80267,-7.63333 -2.388,-11.16533c-11.988,-0.61867 -23.212,-6.28667 -30.88533,-15.596c-12.492,2.73867 -21.52267,13.94267 -21.52267,26.76133c0,15.10667 12.29067,27.39733 27.39867,27.39733c15.10533,0 27.39733,-12.29067 27.39733,-27.39733m-55.80933,-33.24267c0.45067,0 0.89733,-0.01333 1.34133,-0.03467c4.04533,-3.296 8.588,-5.79733 13.51867,-7.43867c-1.408,-4.30667 -2.124,-8.77867 -2.124,-13.30133c0,-7.592 2.02133,-15.048 5.84533,-21.59067c-3.36933,-3.17867 -6.35733,-6.76 -8.892,-10.652c-3.10667,-1.17867 -6.36667,-1.77733 -9.68933,-1.77733c-15.10667,0 -27.39867,12.292 -27.39867,27.39733c0,15.10667 12.292,27.39733 27.39867,27.39733m58.50266,-142.91866c6.72,0 13.30933,1.14133 19.588,3.39067c9.19733,-17.904 27.21067,-29.932 47.192,-31.51467c0.296,-7.20267 1.89733,-14.184 4.76267,-20.75867c-9.084,-19.74933 -28.924,-32.49867 -50.60666,-32.49867c-30.70267,0 -55.68133,24.97867 -55.68133,55.68266c0,11.248 3.35733,22.08267 9.712,31.36533c7.85733,-3.76 16.27867,-5.66667 25.03333,-5.66667m-74.26666,75.616c5.04,-1.99867 10.34,-3.01067 15.764,-3.01067c0.652,0 1.33467,0.01867 2.10267,0.06133c-1.20933,-4.724 -1.824,-9.57867 -1.824,-14.44267c0,-16.91867 7.36133,-32.948 20.20933,-44.05066c-0.36933,-0.552 -0.732,-1.11067 -1.09067,-1.672c-4.312,-1.72933 -8.856,-2.60533 -13.50533,-2.60533c-20.09333,0 -36.43867,16.34667 -36.43867,36.44c0,11.48533 5.52133,22.40933 14.78267,29.28m141.36533,328.02132c10.51333,0 19.06533,-8.552 19.06533,-19.064l0,-196.64532c-4.33067,1.188 -8.984,1.124 -13.29733,-0.2l0,196.84532c0,3.17867 -2.58667,5.76667 -5.768,5.76667l-33.27333,0c-3.18,0 -5.76533,-2.588 -5.76533,-5.76667l0,-232.68666c-3.80933,3.96133 -8.276,7.11333 -13.29867,9.38l0,223.30666c0,10.512 8.552,19.064 19.064,19.064l33.27333,0zm179.72399,38.5c0.09867,-0.192 0.18667,-0.368 0.28267,-0.58933c0.10267,-0.24133 0.20133,-0.48533 0.29067,-0.72933c0.08,-0.21467 0.108,-0.32133 0.13733,-0.43333l0.16933,-0.62133c0.148,-0.528 0.21467,-0.952 0.276,-1.36133l0.07067,-0.45333c0.116,-1.00933 0.15867,-1.99067 0.12933,-2.916c-0.12,-3.52267 -0.76667,-6.376 -1.424,-9.00133c-1.296,-4.88933 -3.05467,-9.74533 -5.53733,-15.28267l-1.15733,-2.59067l-3.3,-1.08133c-1.98,-0.65333 -3.96,-1.30533 -5.95467,-1.91467c-1.82933,-0.572 -3.66933,-1.11733 -5.51467,-1.652l-0.38667,-0.112l-0.204,0.34933c-0.78,1.33067 -1.704,2.48267 -2.74267,3.42667l-0.00667,0.00667c-0.46,0.42667 -1.00267,0.82933 -1.664,1.23067l-0.636,0.46933l0.69067,0.45067c2.452,1.60133 4.62267,2.98267 6.63333,4.22267c1.39067,0.87067 2.792,1.71467 4.19733,2.55467c1.05467,4.888 1.784,8.99067 2.22667,12.53467c0.32667,2.66 0.43333,4.744 0.31467,6.204c-0.00267,0.048 -0.008,0.09333 -0.01333,0.14133c-0.14667,0.11067 -0.33333,0.248 -0.54667,0.38533c-1.22667,0.824 -3.144,1.82267 -5.396,2.816c-1.964,0.86 -4.16,1.728 -6.52133,2.57733c-4.01067,1.44933 -8.43467,2.884 -13.92533,4.516c-8.25733,2.444 -16.85333,4.77467 -25.16667,7.02933l-3.82933,1.04c-1.56133,0.43733 -3.12667,0.868 -4.69467,1.30267c-8.14933,2.25733 -16.57733,4.58933 -24.92,7.508l-2.02,0.70533l2.12,0.29467c6.19867,0.86267 12.71867,1.28267 20,1.28267c3.556,0 7.29467,-0.09867 11.26667,-0.30133c11.09867,-0.66 21.25733,-2.07467 31.06,-4.332c5.62667,-1.29467 10.65733,-2.75333 15.388,-4.452c3.084,-1.132 5.45333,-2.11067 7.68,-3.176c1.40533,-0.664 2.67867,-1.33067 3.89333,-2.036c1.25467,-0.73067 2.61333,-1.56267 4.04267,-2.68133c0.62667,-0.49333 1.37867,-1.10667 2.19733,-1.94c0.78933,-0.82267 1.628,-1.75467 2.49467,-3.39067m3.324,13.24533l-1.58,0.96667c-0.19067,0.116 -0.36933,0.23333 -0.548,0.34933c-0.212,0.13733 -0.42267,0.27333 -0.61067,0.38533l-0.41067,0.21333c-0.27067,0.14 -0.53733,0.28133 -0.80667,0.40533c-0.824,0.38267 -1.636,0.74933 -2.49867,1.05867c-1.8,0.67333 -3.49067,1.24933 -5.16667,1.76533c-3.05067,0.95067 -6.29867,1.88667 -10.528,3.03467c-7.13467,1.948 -14.416,3.82667 -21.22133,5.568c-8.23067,2.108 -14.99733,3.80933 -21.29733,5.35867c-7.57067,1.84933 -14.428,3.49467 -21.672,4.884l-2.132,0.41067l2.08667,0.596c1.008,0.288 2.03333,0.52667 2.83733,0.70533l0.79067,0.14133c0.68267,0.124 1.368,0.248 2.04667,0.34c2.09467,0.31733 4.172,0.464 5.75467,0.55467c1.35867,0.07067 2.73467,0.10267 4.14267,0.10267c2.34267,0 4.764,-0.09333 7.32267,-0.288c7.37733,-0.576 14.92667,-1.85067 22.43333,-3.78933c7.656,-1.968 14.888,-4.5 21.49467,-7.52533c3.89867,-1.812 7.21067,-3.61733 10.124,-5.52c1.96933,-1.29467 3.41733,-2.38133 4.696,-3.516c1.38267,-1.208 2.92267,-2.69067 3.892,-4.556l0.85067,-1.64533zm-90.72533,-17.07067c5.152,-0.79333 10.32667,-1.728 15.37867,-2.77733c4.604,-0.95333 8.75333,-1.92533 12.69067,-2.96267c4.092,-1.10933 8.924,-2.47333 13.73333,-4.16267c4.17333,-1.388 8.52933,-3.15467 13.31467,-5.39867l2.864,-1.34133l-3.14133,0.35867c-16.32533,1.86667 -33.60267,3.07467 -56.01866,3.916c-17.924,0.664 -36.66933,0.93467 -55.71866,0.80933c-20.21067,-0.15067 -38.37733,-0.83067 -55.544,-2.084c-9.94667,-0.72 -18.99467,-1.63333 -27.65867,-2.79067c-9.78667,-1.29467 -18.81733,-2.94933 -27.61333,-5.05467l-3.008,-0.72l2.61067,1.66c7.19733,4.57733 15.50933,8.39333 26.15867,12.01333l0.00133,0c8.46933,2.848 17.59067,5.19333 27.888,7.168c6.04667,1.13867 12.48,2.12133 19.116,2.924c12.248,1.48667 25.004,2.29067 37.92,2.396c1.02133,0.00933 2.04133,0.01333 3.064,0.01333c18.368,0 36.508,-1.33333 53.96266,-3.96667m81.976,-70.444c0.24267,16.76667 0.54133,25.664 0.916,27.19867c0.81333,3.31333 3.42,6.52 10.11333,14.176c1.69867,1.94 4.24133,4.84667 5.408,6.39067c0.33467,6.08133 0.10133,30.35867 -0.304,51.48c-29.78,24.71867 -91.312,39.09466 -160.67199,37.53866c-66.932,-1.5 -126.01866,-17.35333 -150.64799,-40.404c-1.31333,-21.024 -2.56933,-45.34533 -2.46267,-51.69866c1.19733,-1.568 3.68267,-4.408 5.344,-6.30667c6.69467,-7.656 9.30133,-10.86267 10.11067,-14.17333c1.99733,-8.15867 0.944,-124.01866 0.38933,-174.25066c3.112,0.77067 6.32,1.18933 9.55067,1.24667l9.22533,165.14133c0.02533,0.46133 0.05467,1.03733 0.14267,1.60533c0.11067,0.72933 0.29067,1.43467 0.532,2.088c0.49867,1.372 1.36133,2.664 2.42533,3.63467c0.952,0.88133 2.09333,1.57467 3.49867,2.128c0.23333,0.088 0.46533,0.16933 0.7,0.24667l-2.7,1.712c-1.48933,0.94267 -2.94667,1.92 -4.40533,2.90133c-0.668,0.44667 -1.33333,0.89333 -2.00667,1.33867c-2.16,1.45067 -4.28667,2.912 -6.32133,4.33733c-4.41067,3.07733 -8.48267,5.98667 -12.44933,8.888l-1.28133,0.93867l-0.05733,2.14667c-0.084,3.16133 -0.12533,6.32 -0.16267,9.47867l-0.00933,0.74133c-0.02133,1.18133 -0.028,2.35867 -0.036,3.53867l0,0.16133l-0.648,1.01467l0.63867,0.31733l-0.004,1.64133c-0.004,1.18133 -0.00667,2.35867 -0.016,3.53867c-0.016,2.24933 -0.00133,4.49333 0.01733,6.74c0.008,1.15467 0.01733,2.31067 0.02133,3.468c0.00667,2.66933 0.048,5.33867 0.09333,8.00933l0.08,4.99333l2.508,1.94267c0.62,0.48267 1.01867,0.77067 1.50667,1.124l1.75333,1.22c0.792,0.536 1.58133,1.06533 2.37733,1.548c1.96133,1.23067 3.916,2.34267 5.57333,3.27067c3.476,1.93733 7.21467,3.78933 11.428,5.664c7.23733,3.24 14.988,6.10133 23.70533,8.74533l6.04667,1.708l6.07733,1.56533c4.112,0.98 8.236,1.86267 12.248,2.62c1.97867,0.40533 4.05467,0.77733 6.16667,1.11333l1.73467,0.27867c1.45467,0.23733 2.95733,0.47867 4.43867,0.66667l6.184,0.84533c1.372,0.164 2.75067,0.30133 4.12667,0.44l2.072,0.21067c15.71733,1.58933 32.40933,1.888 49.61066,0.89067l0,0c17.70933,-1.07733 33.69733,-3.308 48.88,-6.82667l3.44267,-0.79733l-3.52933,-0.22267c-3.95733,-0.24933 -8.092,-0.45067 -12.27867,-0.59067c-3.932,-0.21067 -7.928,-0.396 -12.212,-0.55867l-12.15067,-0.64267l-6.064,-0.39333l-1.48267,-0.084c-1.49333,-0.08 -3.03867,-0.16533 -4.55733,-0.3c-18.76133,-1.35867 -33.96933,-2.956 -47.86933,-5.03067c-17.00533,-2.50267 -32.252,-5.66267 -46.61066,-9.66133c-7.31733,-2.024 -14.85333,-4.49867 -22.39867,-7.35733c-0.54933,-0.216 -1.104,-0.436 -1.66667,-0.66267c3.948,0.82533 8.04667,1.576 12.39467,2.27733c7.044,1.09867 13.54133,1.87733 19.86533,2.37733l0.31867,0.02533c1.528,0.12133 3.10933,0.24667 4.67067,0.3l0.53733,0.02533c1.46133,0.06933 2.968,0.15067 4.464,0.13467l2.51333,0.01867l2.47733,-0.1c1.27733,-0.012 2.55733,-0.17467 3.792,-0.32933c0.40133,-0.04933 0.79733,-0.1 1.192,-0.14267l-0.02133,-1.03333c-0.408,-0.02667 -0.81733,-0.052 -1.224,-0.07467c-1.24933,-0.07333 -2.42667,-0.144 -3.63733,-0.35467l-2.39733,-0.34667l-2.41733,-0.46533c-1.40933,-0.252 -2.84,-0.59067 -4.224,-0.91867l-0.536,-0.12533c-1.496,-0.32933 -3.01333,-0.736 -4.48,-1.132l-0.244,-0.06533c-5.988,-1.61067 -12.07867,-3.51333 -18.62133,-5.812c-1.176,-0.42267 -2.34667,-0.856 -3.516,-1.28933c-1.07333,-0.39867 -2.148,-0.80667 -3.22133,-1.22133c1.52667,0.27067 3.09067,0.53467 4.70933,0.796c7.044,1.09867 13.54133,1.876 19.86533,2.37867l0.31867,0.02267c1.528,0.12133 3.10933,0.24667 4.67067,0.3l0.53733,0.02667c1.46133,0.06933 2.968,0.148 4.464,0.132l2.51333,0.02133l2.47733,-0.1c1.27733,-0.012 2.556,-0.172 3.792,-0.33067c0.4,-0.04933 0.79733,-0.1 1.19333,-0.144l-0.02133,-1.02933c-0.408,-0.02933 -0.81733,-0.05333 -1.22533,-0.07733c-1.248,-0.07333 -2.42667,-0.14267 -3.63733,-0.35467l-2.39733,-0.344l-2.41733,-0.468c-1.40933,-0.25067 -2.84,-0.58933 -4.224,-0.91733l-0.536,-0.124c-1.496,-0.33067 -3.01333,-0.74 -4.48,-1.13333l-0.244,-0.06667c-5.97333,-1.60667 -12.06667,-3.50933 -18.62133,-5.81333c-1.176,-0.41867 -2.34533,-0.85333 -3.516,-1.288c-2.26,-0.83733 -4.47467,-1.69333 -6.63067,-2.564c2.46133,0.456 4.88533,0.868 7.24933,1.22933c7.22267,1.10667 13.86267,1.88267 20.30533,2.37067c3.82133,0.28667 7.16133,0.43867 10.21067,0.456l2.544,0.008c0.556,-0.004 1.11467,-0.03067 1.67067,-0.06267c0.29867,-0.01333 0.596,-0.028 0.88,-0.04133c1.36133,-0.02267 2.72267,-0.192 4.03867,-0.35733l1.05333,-0.128l-0.028,-1.032l-1.08533,-0.06267c-1.33467,-0.07067 -2.59333,-0.14267 -3.88267,-0.352c-0.29867,-0.04267 -0.59733,-0.08267 -0.89867,-0.12c-0.52267,-0.068 -1.04133,-0.136 -1.55733,-0.22533l-2.46533,-0.45333c-2.932,-0.55333 -6.11467,-1.27867 -9.724,-2.21867c-6.10933,-1.59333 -12.348,-3.496 -19.072,-5.80933c-1.40133,-0.48533 -2.79467,-0.984 -4.184,-1.48933c-4.908,-1.78933 -9.692,-3.71733 -14.22267,-5.724c-1.54267,-0.65867 -3.02667,-1.36933 -4.40133,-2.04133l-2.156,-1.04267l-2.10667,-1.12533c-2.53467,-1.30533 -5.05067,-2.88933 -7.47333,-4.70133l-0.05733,-0.044l-0.14,-0.964c3.096,-3.18533 6.148,-6.38267 9.076,-9.508c1.748,-1.85867 3.47867,-3.74 5.19867,-5.63733c0.54,-0.608 1.08667,-1.212 1.62933,-1.81733c1.17067,-1.29467 2.34,-2.59333 3.48,-3.924l2.108,-2.46c2.36,0.756 4.648,0.872 6.43333,0.884c1.30667,-0.01733 2.58533,-0.06267 3.85733,-0.116l0,8.75733l15.16533,8.07467l0.132,0.05067c27.13867,6 83.05866,14.308 152.65599,2.57867l0.43733,-0.07333l-0.004,-0.444c-0.06133,-4.532 -0.22,-11.03867 -0.46533,-19.33333l-0.07867,-2.56267c0.26133,-0.95467 0.44133,-1.94 0.544,-2.93867l0,-7.628c-0.32133,-7.98 -0.61333,-16.20667 -0.89467,-25.156c-0.45333,-14.84267 -0.824,-30.63333 -1.12667,-48.26266l0,-132.99066c0.29733,-17.056 0.65067,-32.32533 1.08667,-46.668c4.244,-0.93733 8.11333,-3.00533 11.27867,-6.01733l0.03733,1.024c0.04933,1.47333 0.1,2.948 0.144,4.42267c1.13733,37.22933 1.70533,75.66666 1.69467,114.24533c-0.00933,38.85733 -0.588,77.29466 -1.716,114.24666c-0.356,11.24267 -0.68133,20.32 -1.024,28.55867l-0.30933,7.344c-0.04933,1.12533 -0.10133,2.35733 -0.1,3.052c-0.00267,0.26933 0.01733,0.536 0.03867,0.8c0.01067,0.17733 0.02533,0.35333 0.04133,0.61067c0.02933,0.16 0.052,0.324 0.07333,0.488c0.03733,0.28133 0.07467,0.56267 0.14133,0.804c0.74133,3.67867 3.24133,6.784 6.22933,7.728c0.83333,0.24667 1.43333,0.332 2.79067,0.39067l14.34,0.81333c3.49067,0.208 7.09867,0.424 10.64667,0.68667l7.14,0.48933c1.12533,0.06 2.19733,-0.048 3.196,-0.32c1.19867,-0.36933 2.18267,-0.82 2.996,-1.368c1.83867,-1.15867 3.44667,-2.91867 4.652,-5.09867c1.11067,-2.08667 1.82533,-4.468 2.07067,-6.93467l0,-28.19733c3.908,0.85467 8.46,1.52533 13.548,1.99467m-83.68266,32.55467c-0.79067,0.51467 -1.72933,0.932 -2.93867,1.3c-1.14667,0.27733 -2.164,0.37333 -3.14667,0.31333l-6.92,-0.472c-3.41333,-0.252 -6.82667,-0.46 -10.236,-0.66533l-17.148,-1.05067c-3.08667,-0.61467 -5.732,-3.25333 -6.76667,-6.73067c-0.26,-0.904 -0.41467,-1.736 -0.47467,-2.54533c-0.036,-0.37333 -0.068,-0.82933 -0.04133,-1.312l0.00133,-0.21733c0,-0.12267 -0.00133,-0.252 0.00933,-0.45467l0.33067,-7.816c0.33867,-8.06267 0.65867,-16.896 1.008,-27.796c1.108,-35.944 1.676,-73.35733 1.68533,-111.196c0.01067,-32.41867 -0.432,-65.40133 -1.31333,-98.05733c-2.84667,4.012 -6.86667,7.06133 -11.5,8.712c2.29333,3.748 3.49867,8.032 3.49867,12.432c0,5.16667 -1.62533,10.084 -4.70667,14.22933c-0.36,21.37867 -0.54,42.468 -0.532,62.684c0.00933,37.85733 0.57467,75.26666 1.684,111.196c0.34933,10.9 0.66667,19.73333 1.00667,27.79733l0.33067,7.81733c0.008,0.20133 0.03067,0.49867 0.04933,0.776l0.02133,0.27067c0.032,0.656 0.11733,1.33733 0.27067,2.15733c0.22267,1.324 0.62667,2.68667 1.24,4.17733c1.25867,2.88933 3.00133,5.244 5.18133,6.99733c2.34133,1.95467 5.264,3.16933 8.22933,3.42133l1.712,0.028l16.196,-0.924c3.42133,-0.20667 6.84133,-0.412 10.26133,-0.66667l6.98533,-0.49733c1.19333,-0.09067 2.43733,-0.39733 3.68933,-0.90533c1.34,-0.62 2.33733,-1.24133 3.116,-1.94667c2.044,-1.784 3.53333,-4.14933 4.324,-6.86133c-0.14933,0.316 -0.308,0.628 -0.476,0.93067c-1.216,2.09867 -2.816,3.78267 -4.63067,4.87467m-173.31466,-33.164l-0.94933,16.99867c-0.02267,0.40267 -0.04133,0.728 -0.028,1.05067c0.012,0.41067 0.06133,0.80133 0.14933,1.164c0.32133,1.44 1.39467,2.68933 3.024,3.53067c2.65333,1.38533 6.084,1.64533 9.44,1.86l0,-181.68666c-0.948,0.73067 -1.94667,1.43067 -2.976,2.09333l-8.66,154.98933zm243.44932,-192.44132c3.87467,0.22933 8.448,0.20133 12.87333,0.128c-0.024,49.15733 0.02933,91.004 0.15467,124.39599c-4.60267,-0.20933 -8.96933,-0.53333 -13.028,-0.85867l0,-123.66533"/>
  <path fill-rule="nonzero" fill="#100f0d" id="path64" d="m412.09065,649.16802c-4.08133,-0.22 -8.15067,-0.404 -12.21067,-0.55867l-12.15733,-0.64267l-6.06,-0.39467c-2.01867,-0.11733 -4.036,-0.20533 -6.048,-0.38133c-16.10667,-1.168 -32.10133,-2.67867 -47.90666,-5.036c-15.80267,-2.32667 -31.432,-5.43067 -46.67333,-9.676c-7.62267,-2.108 -15.112,-4.59333 -22.44933,-7.37333c-2.376,-0.932 -4.728,-1.908 -7.06267,-2.91067c6.02267,1.41333 12.03467,2.56133 18.05867,3.532c6.592,1.028 13.2,1.848 19.82667,2.37333c1.656,0.132 3.30933,0.26533 4.97467,0.32267c1.66,0.08 3.31333,0.17067 4.98,0.16l2.48667,0.01867l2.492,-0.09867c1.65333,-0.01733 3.30933,-0.288 4.93467,-0.472l0,0c-1.65467,-0.116 -3.276,-0.14933 -4.89867,-0.43333l-2.42267,-0.348l-2.40933,-0.468c-1.60267,-0.28533 -3.19467,-0.67333 -4.784,-1.04667c-1.58933,-0.352 -3.16933,-0.78 -4.74533,-1.204c-6.304,-1.696 -12.52533,-3.668 -18.66133,-5.82533c-1.17867,-0.42133 -2.35067,-0.85467 -3.52267,-1.28933c-2.744,-1.02 -5.464,-2.08267 -8.156,-3.18667c3.30133,0.64933 6.60133,1.232 9.90533,1.764c6.592,1.028 13.2,1.84667 19.82667,2.37333c1.656,0.13067 3.30933,0.26533 4.97467,0.324c1.66,0.07733 3.31333,0.16933 4.98,0.15733l2.48667,0.02l2.492,-0.1c1.65333,-0.016 3.30933,-0.28667 4.93467,-0.46933c-1.65467,-0.11867 -3.276,-0.152 -4.89867,-0.436l-2.42267,-0.348l-2.40933,-0.468c-1.60267,-0.28533 -3.19467,-0.67333 -4.784,-1.04667c-1.58933,-0.352 -3.16933,-0.78 -4.74533,-1.20267c-6.304,-1.696 -12.52533,-3.668 -18.66133,-5.82533c-1.17867,-0.42267 -2.34933,-0.856 -3.52133,-1.29067c-3.84933,-1.42933 -7.65067,-2.93733 -11.38133,-4.54c4.08267,0.83867 8.16533,1.58133 12.25867,2.20933c6.74,1.032 13.492,1.852 20.26533,2.36533c3.38533,0.256 6.77733,0.43333 10.172,0.456l2.54267,0.00667c0.84667,-0.00533 1.69867,-0.07067 2.54267,-0.10267c1.69067,-0.028 3.38133,-0.29067 5.04267,-0.48533l0,0c-1.68933,-0.10667 -3.34933,-0.14667 -5.00933,-0.42c-0.82933,-0.11867 -1.65467,-0.20267 -2.47867,-0.34667l-2.46533,-0.456c-3.27867,-0.616 -6.53067,-1.384 -9.75867,-2.22533c-6.456,-1.684 -12.828,-3.65867 -19.112,-5.82267c-1.40267,-0.48267 -2.8,-0.98267 -4.192,-1.492c-4.84,-1.76533 -9.60933,-3.67733 -14.25067,-5.73333c-1.50667,-0.64267 -2.97067,-1.34267 -4.42133,-2.05067l-2.176,-1.05333l-2.09867,-1.12c-2.82933,-1.45733 -5.38133,-3.128 -7.54533,-4.748l-0.168,0.26267c-0.08933,-0.62133 -0.17733,-1.24267 -0.26933,-1.86133c3.11067,-3.19733 6.19467,-6.424 9.24667,-9.68533c1.74667,-1.85867 3.476,-3.736 5.19067,-5.62933c1.70267,-1.908 3.43333,-3.784 5.10267,-5.732c-2.16667,1.37467 -4.26933,2.82 -6.40133,4.232c-2.11867,1.42933 -4.224,2.872 -6.312,4.33467c-4.184,2.91867 -8.33467,5.87333 -12.44133,8.88l-1.07733,0.788l-0.04933,1.89467c-0.09067,3.408 -0.13067,6.81067 -0.17333,10.21467c-0.02267,1.28267 -0.028,2.564 -0.03467,3.84533l-0.42133,0.656c0.14,0.07067 0.27467,0.12933 0.41333,0.19867c-0.00667,1.836 -0.00933,3.672 -0.02,5.508c-0.028,3.40267 0.02533,6.8 0.03733,10.20133c0.00667,3.40133 0.07733,6.79867 0.12933,10.19467l0.04,2.55467l2.312,1.78933c0.61467,0.47733 1.00667,0.76267 1.488,1.11067l1.372,0.964c0.91067,0.612 1.81467,1.23067 2.736,1.78933c1.83333,1.15067 3.68533,2.21333 5.54933,3.25467c3.724,2.07733 7.53067,3.92933 11.388,5.64533c7.704,3.44933 15.62267,6.288 23.632,8.71867l6.03867,1.70667l6.068,1.56267c4.05867,0.96533 8.13733,1.84133 12.228,2.61733c2.04267,0.41333 4.08933,0.78 6.144,1.10667c2.05467,0.32267 4.104,0.68533 6.16533,0.94533l6.17333,0.84133c2.06,0.24667 4.12667,0.436 6.18933,0.65333c16.50933,1.66667 33.08667,1.84133 49.52933,0.888c16.44267,-1.00133 32.77733,-3.10533 48.79333,-6.81467l0,0c-4.10933,-0.26 -8.2,-0.452 -12.276,-0.59067m93.54666,-49.764c0,0 0,0.00933 0.00267,0.01333c0.01733,0.064 0.032,-0.09467 0.06933,-0.13467c0.012,-0.05333 0.024,-0.12933 0.03733,-0.192c-0.03333,0.076 -0.064,0.15333 -0.08667,0.232l-0.02267,0.08133zm-26.55333,9.79733c4.744,-1.41067 9.436,-2.89333 13.95333,-4.524c2.25467,-0.81333 4.46667,-1.67867 6.55467,-2.59333c2.06133,-0.908 4.092,-1.93067 5.47733,-2.85867c0.03733,-0.02533 0.06667,-0.04533 0.10133,-0.07067c0.26533,-0.18 0.496,-0.34933 0.64,-0.46533c0.01733,-0.12133 0.03467,-0.23867 0.04667,-0.38267c0.02267,-0.27733 0.032,-0.57867 0.04,-0.88933c0.03333,-1.57067 -0.124,-3.50533 -0.36,-5.416c-0.51467,-4.136 -1.35733,-8.54133 -2.28,-12.80133c-1.46667,-0.87467 -2.93067,-1.75467 -4.38267,-2.664c-2.224,-1.36933 -4.43067,-2.78267 -6.624,-4.21733c-0.02533,-0.01333 -0.04667,-0.02933 -0.07067,-0.04533c0.62933,-0.37867 1.22267,-0.8 1.75067,-1.29467c1.15867,-1.05067 2.08533,-2.26 2.84133,-3.55067c1.84,0.536 3.67867,1.07867 5.504,1.65067c2.50133,0.764 4.97333,1.59067 7.45067,2.404l1.58267,0.51867l1.064,2.37867c2.21733,4.95467 4.07733,9.81467 5.508,15.204c0.67867,2.72133 1.29067,5.46667 1.40667,8.88667c0.028,0.856 -0.008,1.80933 -0.12533,2.84c-0.09867,0.58267 -0.144,1.064 -0.33067,1.736l-0.128,0.47467c-0.056,0.18267 -0.06133,0.25733 -0.16667,0.536c-0.088,0.24 -0.18133,0.476 -0.28133,0.70933c-0.09867,0.22667 -0.192,0.40667 -0.29467,0.60933c-0.82267,1.55067 -1.632,2.43467 -2.37867,3.21067c-0.75333,0.768 -1.456,1.352 -2.14533,1.892c-1.37733,1.08133 -2.68133,1.88533 -3.984,2.64533c-1.296,0.75067 -2.57333,1.408 -3.85333,2.01333c-2.55067,1.22133 -5.09467,2.22533 -7.63733,3.15867c-5.08933,1.82933 -10.196,3.252 -15.32667,4.436c-10.25867,2.35867 -20.60533,3.70133 -30.972,4.31867c-10.37733,0.524 -20.76,0.46667 -31.168,-0.97733c9.91333,-3.46933 19.80133,-6.068 29.58533,-8.80133c9.78667,-2.66 19.50133,-5.25867 29.00267,-8.07067m40.18533,11.764c-0.42,0.21467 -0.82267,0.43333 -1.23467,0.62933c-0.84133,0.388 -1.66667,0.76133 -2.536,1.07333c-1.716,0.64133 -3.44267,1.236 -5.19333,1.772c-3.49333,1.08933 -7.01333,2.08267 -10.544,3.04c-7.05867,1.928 -14.144,3.75867 -21.22933,5.57067c-7.08933,1.81467 -14.18133,3.60933 -21.30267,5.36133c-7.144,1.74533 -14.22933,3.456 -21.69867,4.89067c0.916,0.26133 1.848,0.48267 2.784,0.692c0.936,0.164 1.88133,0.35067 2.82667,0.48c1.89333,0.288 3.796,0.44 5.70133,0.54933c3.81067,0.19467 7.62,0.10133 11.4,-0.184c7.56267,-0.592 15.03333,-1.888 22.34533,-3.77467c7.31333,-1.88 14.49067,-4.32667 21.404,-7.49333c3.44667,-1.60133 6.836,-3.37733 10.05867,-5.48133c1.60533,-1.05867 3.18133,-2.18133 4.63867,-3.47733c1.45067,-1.264 2.88267,-2.68667 3.77333,-4.404l-0.00133,0c-0.416,0.256 -0.79467,0.52267 -1.192,0.756m-202.18932,-21.10667c6.33333,1.19067 12.69867,2.14533 19.08267,2.91867c12.57733,1.524 25.228,2.28933 37.86133,2.39333c19.052,0.152 38.10266,-1.10533 56.944,-3.95067c5.13867,-0.79067 10.25733,-1.712 15.35333,-2.77067c4.24133,-0.88 8.46667,-1.85067 12.66,-2.95867c4.60933,-1.24667 9.196,-2.56667 13.70533,-4.152c4.52267,-1.50533 8.95333,-3.35733 13.25867,-5.37467l0.00133,0l-0.00133,0c-18.88533,2.16 -37.42533,3.22 -56.05733,3.91867c-18.60667,0.68933 -37.184,0.93333 -55.74133,0.808c-18.55733,-0.13733 -37.09067,-0.73467 -55.576,-2.084c-9.24533,-0.66933 -18.47467,-1.56267 -27.69067,-2.79333c-9.228,-1.22267 -18.396,-2.84533 -27.66533,-5.064c8.056,5.12 16.97867,8.876 26.04667,11.95867c9.096,3.05733 18.424,5.34533 27.81867,7.15067m212.58799,30.92267c0.43467,-22.39467 0.644,-46.2 0.30133,-51.91333c-1.12267,-1.50933 -3.71867,-4.48133 -5.52667,-6.54667c-6.63467,-7.58667 -9.216,-10.756 -9.99867,-13.95867c-0.38667,-1.576 -0.684,-11.62267 -0.91067,-27.54533c-5.16533,-0.46133 -10.14133,-1.15733 -14.576,-2.16933l0,28.84267c-0.23733,2.38 -0.92933,4.668 -2.00933,6.69333c-1.10933,2.004 -2.64,3.74933 -4.47067,4.904c-0.89733,0.60667 -1.888,1.008 -2.87333,1.31067c-1,0.27067 -2.01867,0.34667 -3.01467,0.29733l-7.13333,-0.492c-4.76,-0.34667 -9.52133,-0.61067 -14.28133,-0.90133l-7.14133,-0.40267l-3.572,-0.19467c-1.38133,-0.06 -1.90933,-0.14267 -2.66933,-0.37067c-2.86533,-0.904 -5.184,-3.92267 -5.87067,-7.33333c-0.112,-0.41733 -0.132,-0.86267 -0.21467,-1.28667c-0.01333,-0.44 -0.072,-0.86933 -0.06933,-1.30667c-0.00133,-0.73867 0.05867,-2.06933 0.10933,-3.23867l0.29867,-7.14133c0.39733,-9.52133 0.724,-19.044 1.02533,-28.56533c1.164,-38.088 1.70533,-76.17466 1.71333,-114.26266c0.01333,-38.08666 -0.52933,-76.17333 -1.692,-114.25999c-0.068,-2.21333 -0.148,-4.42533 -0.22133,-6.63867c-3.24,3.4 -7.48533,5.83333 -12.26,6.804c-0.47867,15.69333 -0.828,31.38667 -1.1,47.08l0,133.00133c0.276,16.092 0.63467,32.18267 1.12533,48.276c0.26533,8.38667 0.56,16.77333 0.89467,25.16l0,7.608c-0.23333,2.316 -0.932,4.536 -2.01067,6.488c-1.11867,1.92533 -2.63733,3.59333 -4.44533,4.68267c-0.884,0.57467 -1.85733,0.95333 -2.82267,1.24667c-0.98533,0.23867 -1.97867,0.35867 -2.96133,0.29333l-6.91867,-0.472c-4.63333,-0.34267 -9.26667,-0.60133 -13.90133,-0.888l-6.95067,-0.39467l-3.47467,-0.192l-1.73733,-0.09467l-0.436,-0.024l-0.29067,-0.044l-0.55867,-0.076c-2.92533,-0.58133 -5.39467,-3.188 -6.34133,-6.36533c-0.23067,-0.79467 -0.39467,-1.608 -0.456,-2.436c-0.03867,-0.41333 -0.06267,-0.82533 -0.03867,-1.244c0.00667,-0.232 -0.00533,-0.35733 0.01067,-0.676l0.036,-0.86933l0.29467,-6.95067c0.38933,-9.26667 0.712,-18.53467 1.00667,-27.80133c1.144,-37.07067 1.676,-74.14266 1.68533,-111.21333c0.01067,-33.236 -0.444,-66.47466 -1.356,-99.71066c-2.88667,4.724 -7.40267,8.34533 -12.76,10.088c2.38,3.66267 3.76933,8.02533 3.76933,12.70933c0,5.27067 -1.75333,10.13867 -4.70533,14.05467c-0.35333,20.95333 -0.54267,41.90666 -0.53467,62.85866c0.00933,37.07067 0.54133,74.14266 1.684,111.21333c0.296,9.26667 0.61733,18.53467 1.008,27.80133l0.29333,6.95067l0.03733,0.86933c0.008,0.26133 0.04533,0.71333 0.07067,1.05867c0.03733,0.744 0.14133,1.48267 0.27733,2.21467c0.24667,1.46933 0.704,2.90133 1.272,4.28c1.19067,2.736 2.93467,5.27467 5.33467,7.204c2.34267,1.95867 5.36667,3.268 8.50933,3.53467l1.17733,0.028l0.57467,0.00267l0.436,-0.024l1.73733,-0.09467l3.47467,-0.19067l6.95067,-0.39467c4.63467,-0.288 9.268,-0.54667 13.90133,-0.888l6.98267,-0.49733c1.33867,-0.104 2.636,-0.45067 3.848,-0.94133c1.18533,-0.54933 2.32267,-1.18667 3.26933,-2.04267c2.34133,-2.044 3.856,-4.71867 4.59333,-7.536c0.24267,8.08667 0.40267,14.65467 0.46533,19.32667c-70.30133,11.84667 -126.83466,3.088 -152.45999,-2.576l-14.88933,-7.93067l0,-8.984c-1.44667,0.06 -2.896,0.11467 -4.38267,0.13733c-2.3,-0.01733 -4.67333,-0.23067 -7.02267,-1.12133c-1.164,-0.45867 -2.32667,-1.096 -3.33067,-2.024c-1.00533,-0.91867 -1.81467,-2.12667 -2.28933,-3.432c-0.24,-0.65067 -0.40533,-1.32 -0.50667,-1.988c-0.104,-0.676 -0.124,-1.35333 -0.156,-1.86533l-0.18533,-3.328l-0.744,-13.312l-2.97467,-53.24666l-5.332,-95.42933c-3.64667,-0.024 -7.18667,-0.50933 -10.56267,-1.40267c0.58267,52.47733 1.60933,166.71599 -0.368,174.79333c-0.78267,3.20267 -3.36267,6.37067 -9.996,13.956c-1.77867,2.032 -4.32,4.93867 -5.46933,6.472c-0.13067,5.96133 1.08,29.83733 2.47333,52.11066c24.69733,23.276 83.46266,39.16933 151.13866,40.68666c70.07066,1.576 131.32533,-12.86667 161.19466,-37.80933m-265.48265,-255.38399l-5.7,102.00666l-2.97467,53.24666l-0.74267,13.312l-0.18667,3.328c-0.03067,0.59733 -0.06667,1.03067 -0.05067,1.46c0.01467,0.43467 0.068,0.85733 0.16533,1.26267c0.36133,1.624 1.55333,2.97333 3.28933,3.87067c2.892,1.51067 6.544,1.72 10.196,1.94933l0,-183.30399c-1.27333,1.032 -2.60933,1.98667 -3.996,2.868m-22.65067,-7.9c15.392,0 27.91467,-12.52267 27.91467,-27.91467c0,-4.164 -0.92267,-8.11333 -2.564,-11.66667c-12.50533,-0.55333 -23.61733,-6.54533 -31.02533,-15.66667c-12.68,2.62933 -22.24,13.88533 -22.24,27.33333c0,15.392 12.52267,27.91467 27.91467,27.91467m-28.41067,-60.64c0.516,0 1.02933,-0.01733 1.53867,-0.04533c4.09067,-3.36 8.82133,-5.968 13.976,-7.61733c-1.45733,-4.28133 -2.26,-8.86133 -2.26,-13.63067c0,-7.91867 2.188,-15.33467 5.98267,-21.68267c-3.50267,-3.26 -6.59733,-6.94933 -9.20667,-10.98267c-3.116,-1.20267 -6.496,-1.87067 -10.03067,-1.87067c-15.392,0 -27.91467,12.52267 -27.91467,27.91467c0,15.392 12.52267,27.91467 27.91467,27.91467m-15.83733,-67.23333c4.896,-1.98 10.24,-3.08133 15.83733,-3.08133c0.936,0 1.86267,0.04267 2.784,0.10133c-1.28933,-4.78533 -1.988,-9.81067 -1.988,-15c0,-17.59467 7.924,-33.36533 20.38133,-43.95866c-0.492,-0.716 -0.96533,-1.44667 -1.43333,-2.18133c-4.28,-1.73733 -8.95467,-2.704 -13.852,-2.704c-20.37733,0 -36.956,16.57867 -36.956,36.956c0,12.26133 6.00667,23.14133 15.22667,29.868m31.11733,-17.98c0,12.27467 5.152,23.36133 13.39467,31.23733c7.336,-6.06667 16.73867,-9.716 26.97867,-9.716c7.89467,0 15.288,2.176 21.624,5.948c2.464,-6.056 6.51467,-11.30267 11.63867,-15.21867c-10.328,-10.432 -16.71867,-24.76933 -16.71867,-40.57333c0,-4.188 0.46,-8.26933 1.312,-12.208c-4.67733,-1.73733 -9.73333,-2.69067 -15.008,-2.69067c-23.832,0 -43.22133,19.38933 -43.22133,43.22133m7.96,-83.92133c0,11.89467 3.72533,22.93067 10.05467,32.024c7.62,-3.71733 16.17333,-5.808 25.20667,-5.808c6.968,0 13.652,1.24267 19.84267,3.516c8.916,-17.7 26.672,-30.20133 47.43733,-31.676c0.25067,-7.53333 1.94933,-14.704 4.832,-21.24533c-8.84933,-19.448 -28.45067,-33.01067 -51.17333,-33.01067c-30.98933,0 -56.2,25.21067 -56.2,56.2m106.664,12.37733c-23.832,0 -43.22133,19.38933 -43.22133,43.22133c0,23.83333 19.38933,43.22133 43.22133,43.22133c2.656,0 5.25467,-0.25333 7.78,-0.71467c5.264,-8.064 14.248,-13.48267 24.5,-13.80667c0.85467,-0.96133 1.672,-1.956 2.44,-2.99067c-0.072,-0.99467 -0.12133,-1.996 -0.12133,-3.00933c0,-9.49333 3.18667,-18.25467 8.53867,-25.28267c-1.34133,-22.63333 -20.172,-40.63866 -43.13733,-40.63866m10.34133,-13.53867c22.38,4.06933 40.296,21.076 45.68666,42.97066c4.48267,-2.51467 9.472,-4.224 14.77467,-4.93733c1.46667,-6.048 3.884,-11.72533 7.092,-16.86533c-5.48933,-7.84133 -8.72267,-17.37333 -8.72267,-27.65067c0,-10.39067 3.304,-20.01733 8.904,-27.90667c-6.97733,-4.83067 -15.43333,-7.67067 -24.54133,-7.67067c-23.444,0 -42.57333,18.764 -43.19333,42.06m42.77733,115.83599c0,-10.956 -8.91333,-19.86933 -19.86933,-19.86933c-10.95733,0 -19.87067,8.91333 -19.87067,19.86933c0,7.82667 4.55867,14.58933 11.14933,17.82667c2.13733,0.33867 4.17733,0.97067 6.08267,1.848c0.86533,0.116 1.74133,0.196 2.63867,0.196c10.956,0 19.86933,-8.91333 19.86933,-19.87067m-16.96933,40.93066c0,-8.43067 -6.85867,-15.29067 -15.28933,-15.29067c-8.43067,0 -15.29067,6.86 -15.29067,15.29067c0,4.7 2.13467,8.90667 5.48133,11.71333c3.66133,0.40667 7.068,1.664 10.024,3.56667c8.33067,-0.11733 15.07467,-6.92133 15.07467,-15.28m-12.408,34.95867c0,-8.43067 -6.85867,-15.28933 -15.28933,-15.28933c-8.43067,0 -15.29067,6.85867 -15.29067,15.28933c0,8.43067 6.86,15.29067 15.29067,15.29067c8.43067,0 15.28933,-6.86 15.28933,-15.29067m-20.90533,-65.53866c0,-4.32133 -1.27867,-8.34267 -3.45467,-11.736c-10.256,-0.108 -19.87467,-2.908 -28.192,-7.72267c-6.27467,3.18133 -10.80267,9.296 -11.77867,16.53733c4.41733,5.764 7.38533,12.688 8.368,20.23067c1.13333,0.86933 2.352,1.62533 3.64533,2.26133c2.39467,-0.82933 4.96267,-1.28667 7.63733,-1.28667c3.448,0 6.72133,0.756 9.67067,2.10133c8.22933,-3.12667 14.104,-11.07333 14.104,-20.38533m-27.028,92.91333c-2.936,0 -5.316,2.37867 -5.316,5.31467c0,2.936 2.38,5.316 5.316,5.316c2.936,0 5.31467,-2.38 5.31467,-5.316c0,-2.936 -2.37867,-5.31467 -5.31467,-5.31467m12.33733,-38.96533c1.272,-2.22133 2.896,-4.21467 4.79867,-5.90267c0.89467,-1.94133 1.40667,-4.09467 1.40667,-6.368c0,-8.43067 -6.85867,-15.28933 -15.28933,-15.28933c-4.848,0 -9.16667,2.27467 -11.97067,5.80533c-0.74267,3.27333 -1.86,6.40533 -3.312,9.34533c-0.00133,0.04667 -0.00667,0.08933 -0.008,0.13467l0,0.004c0,8.43067 6.86,15.29067 15.29067,15.29067c3.404,0 6.54,-1.132 9.084,-3.02m-34.48133,-31.132c0,-15.392 -12.52267,-27.91333 -27.91467,-27.91333c-15.392,0 -27.91467,12.52133 -27.91467,27.91333c0,15.392 12.52267,27.91467 27.91467,27.91467c15.392,0 27.91467,-12.52267 27.91467,-27.91467m-10.82,262.42932c0,10.79733 8.784,19.58133 19.58,19.58133l33.27333,0c10.79733,0 19.58133,-8.784 19.58133,-19.58133l0,-197.33199c-2.16,0.66133 -4.452,1.01867 -6.82667,1.01867c-2.62533,0 -5.14667,-0.44133 -7.504,-1.24133l0,197.55466c0,2.89467 -2.356,5.25067 -5.25067,5.25067l-33.27333,0c-2.89333,0 -5.24933,-2.356 -5.24933,-5.25067l0,-233.99732c-3.972,4.38533 -8.84933,7.93067 -14.33067,10.356l0,223.64132zm123.84533,-236.84932c-4.73467,0 -8.572,3.83733 -8.572,8.572c0,4.73333 3.83733,8.57067 8.572,8.57067c4.732,0 8.57067,-3.83733 8.57067,-8.57067c0,-4.73467 -3.83867,-8.572 -8.57067,-8.572m20.22667,-27.67333c8.43067,0 15.28933,-6.85867 15.28933,-15.29067c0,-8.42933 -6.85867,-15.28933 -15.28933,-15.28933c-8.432,0 -15.29067,6.86 -15.29067,15.28933c0,8.432 6.85867,15.29067 15.29067,15.29067m-10.50267,-94.77866c-15.06933,0 -27.33067,12.26 -27.33067,27.32933c0,4.54933 1.12533,8.84 3.1,12.61733c3.132,2.50133 5.76267,5.60267 7.70933,9.13333c4.592,3.49733 10.31733,5.57867 16.52133,5.57867c15.06933,0 27.32933,-12.26 27.32933,-27.32933c0,-15.06933 -12.26,-27.32933 -27.32933,-27.32933m7.24267,-58.61333c0,18.67067 15.18933,33.86 33.86,33.86c18.67067,0 33.86133,-15.18933 33.86133,-33.86c0,-18.672 -15.19067,-33.86133 -33.86133,-33.86133c-18.67067,0 -33.86,15.18933 -33.86,33.86133m54.97333,116.52533c0,-8.43067 -6.85867,-15.29067 -15.28933,-15.29067c-8.43067,0 -15.28933,6.86 -15.28933,15.29067c0,8.43067 6.85867,15.29067 15.28933,15.29067c8.43067,0 15.28933,-6.86 15.28933,-15.29067m-10.76133,48.81866c3.472,0 6.288,-2.81467 6.288,-6.28667c0,-3.47333 -2.816,-6.288 -6.288,-6.288c-3.472,0 -6.28667,2.81467 -6.28667,6.288c0,3.472 2.81467,6.28667 6.28667,6.28667m-8.15467,48.15466c0,4.504 3.64933,8.15467 8.15467,8.15467c4.504,0 8.15467,-3.65067 8.15467,-8.15467c0,-4.504 -3.65067,-8.156 -8.15467,-8.156c-4.50533,0 -8.15467,3.652 -8.15467,8.156m-2.19733,-165.15466c-10.94267,0 -21.044,-3.65867 -29.15467,-9.81067c-1.08,2.11867 -2,4.332 -2.724,6.63333c18.63067,4.212 32.59067,20.88933 32.59067,40.776c0,2.71467 -0.26933,5.36667 -0.76533,7.93867c1.87867,-0.488 3.84667,-0.74933 5.87733,-0.74933c6.188,0 11.81867,2.42 16.00533,6.356c17.77333,-5.36533 30.75333,-21.88133 30.75333,-41.38c0,-11.98267 -4.904,-22.83867 -12.80533,-30.67467c-8.732,12.62133 -23.30133,20.91067 -39.77733,20.91067m121.48266,146.34133c0.00533,0.01467 0.02667,0.02667 0.044,0.03733c-0.028,-0.016 -0.048,-0.04 -0.06267,-0.07067c0.00133,0.01067 0.00667,0.02 0.01867,0.03333m-22.944,49.89733c0.09467,-4.37067 0.108,-8.26533 0.06,-11.72267l-31.77867,2.08933c0,3.22533 0.00133,6.436 0.00267,9.63333l31.716,0zm-1.10267,23.88533c0.04933,-0.736 0.09733,-1.47067 0.144,-2.21333c0.21067,-3.34 0.38667,-6.504 0.52933,-9.50267l-31.28267,-1.97467c0.00133,3.28 0.004,6.54533 0.00667,9.784l30.60267,3.90667zm-2.01333,23.672c0.39467,-3.78267 0.77067,-7.76533 1.12133,-11.89467l-29.70133,-5.74533c0.00267,3.42267 0.00667,6.808 0.012,10.17067l28.568,7.46933zm-3.19333,24.33467c0.58933,-3.48133 1.19733,-7.61733 1.79467,-12.26933l-27.152,-9.004c0.00533,3.71733 0.012,7.38933 0.02,11.012l25.33733,10.26133zm-20.25333,16.53867c9.4,-0.81067 14.62133,-2.76267 16.81333,-4.64667l-21.86933,-10.54933c0.01067,4.20533 0.02267,8.32267 0.036,12.36133l5.02,2.83467zm-5.15467,-117.79466c-0.00133,3.31867 -0.00133,6.62933 -0.00133,9.92933l31.276,-4.06267c-0.45067,-5.68933 -1.12,-9.08667 -1.73867,-10.70133c-0.57467,-0.216 -1.19333,-0.412 -1.832,-0.6l-27.704,5.43467zm-14.49733,-7.45733c-5.41067,0.09467 -10.02667,0.10667 -13.91067,-0.15333l0,124.69466c4.06133,0.32667 8.91733,0.69733 14.06667,0.92267c-0.14533,-37.74266 -0.17867,-82.356 -0.156,-125.46399m-18.95467,-61.08c-1.37333,4.788 -1.36133,18.60667 -0.45867,30.20267c7.10533,-0.364 14.168,-0.628 21.23867,-0.892c9.45333,-0.32 18.9,-0.53867 28.41333,-0.51067c4.75467,0.03067 9.528,0.10267 14.33733,0.34933c4.81733,0.20533 9.65733,0.60533 14.61867,1.26c2.5,0.35733 4.98933,0.76533 7.59867,1.42267c2.61067,0.672 5.28,1.428 8.26,2.972l1.12267,0.616c0.37867,0.22 0.788,0.52933 1.17467,0.79867c0.39867,0.30267 0.76,0.51867 1.17467,0.908c0.408,0.372 0.808,0.75733 1.19733,1.15067c0.38267,0.34933 0.78267,0.91333 1.15067,1.41733c0.36933,0.544 0.72267,0.98267 1.04267,1.68267c0.15733,0.31733 0.32667,0.676 0.44533,0.96933l0.276,0.77333c0.2,0.556 0.28933,0.94933 0.40933,1.396c0.41733,1.69733 0.61067,3.10267 0.768,4.46933c0.148,1.35467 0.25067,2.65867 0.31867,3.93333c0.21733,5.088 0.10933,9.92267 -0.07467,14.752c-0.25067,4.81733 -0.54933,9.59333 -0.98133,14.348c-0.86267,9.50533 -1.99467,18.94 -3.40933,28.33067c-1.41467,9.39067 -3.044,18.74267 -4.96133,28.04933c-1.944,9.30267 -4.05467,18.57733 -6.77333,27.76c-0.73867,-19.10933 -0.21067,-38.01066 0.392,-56.848l1.04,-28.14533c0.156,-4.67067 0.34533,-9.32533 0.39467,-13.94667c0.10533,-4.60533 0.14133,-9.22267 -0.088,-13.56667c-0.044,-1.084 -0.11733,-2.13467 -0.212,-3.128c-0.09467,-0.98 -0.24,-1.91733 -0.37733,-2.51333c-0.008,-0.03467 -0.01867,-0.07467 -0.028,-0.11467c-0.05067,-0.032 -0.11467,-0.06667 -0.15067,-0.1c-0.09733,-0.06533 -0.14933,-0.132 -0.276,-0.21333l-0.42533,-0.24533c-1.18133,-0.69733 -3.044,-1.38533 -4.98267,-1.94133c-1.95067,-0.57867 -4.11467,-1 -6.26133,-1.464c-8.76,-1.66267 -18.10533,-2.66267 -27.41867,-3.80267c-16.18533,-1.96267 -32.62533,-3.94533 -48.76266,-7.676c0.52667,5.832 1.28533,10.872 2.20667,13.544c3.81467,0.87733 14.02267,0.66533 21.66533,0.50533c16.49733,-0.34267 35.19067,-0.73333 46.69733,4.56667c5.61467,2.58533 8.15867,9.70667 9.07467,25.39733c0.59333,10.12 0.44,23.78133 -0.44,39.50933c-1.44267,25.78267 -5.08133,58.62266 -8.67467,68.95066c-6.39867,18.39867 -38.39066,17.39867 -67.876,15.012c-2.17067,-0.17467 -4.112,-0.33333 -5.53067,-0.416c-1.63067,2.15333 -3.83867,9.39067 -3.30533,18.27333c4.75733,1.20533 9.60267,2.26933 14.48133,3.24c6.70267,1.32133 13.48,2.48267 20.292,3.43733c6.81333,0.96267 13.66133,1.77333 20.53467,2.344c1.71867,0.14533 3.43867,0.28 5.15733,0.36933c1.724,0.11867 3.444,0.18933 5.16667,0.236c3.44133,0.068 6.90667,0.17067 10.32533,-0.42933c-3.28267,1.18933 -6.77333,1.70133 -10.21733,2.236c-1.72933,0.25733 -3.46267,0.488 -5.19867,0.672c-1.73467,0.21333 -3.47333,0.38 -5.21333,0.536c-6.95867,0.63867 -13.94267,1.03067 -20.94267,1.26933c-7.00133,0.24133 -14.016,0.276 -21.06667,0.12933c-3.188,-0.06933 -6.38267,-0.18533 -9.58667,-0.348c1.07867,1.72533 2.35067,3.044 3.77867,3.85067c14.112,7.97733 70.00666,4.99867 81.43066,1.49333c9.536,-17.66267 47.38533,-180.57866 46.32933,-200.27599c-1.124,-20.98667 -17.748,-35.28933 -44.46933,-38.25733c-13.56,-1.50533 -33.42533,-2.22933 -50.612,-1.84133c-20.90133,0.47067 -30.69867,2.356 -33.73867,3.54267m-2.904,390.37998c-1.616,0.54533 -3.252,1.07867 -4.90933,1.6c-9.94933,3.12133 -20.664,5.768 -32.02533,7.90933c-1.89333,0.35733 -3.80533,0.7 -5.736,1.02933c-5.784,0.98533 -11.728,1.84533 -17.812,2.572c-4.05733,0.48533 -8.176,0.91067 -12.35467,1.27867c-12.53333,1.10133 -25.59333,1.66667 -39.06,1.66667c-1.81333,0 -3.63333,-0.01067 -5.46,-0.03067c-1.82667,-0.02133 -3.66133,-0.052 -5.504,-0.09333c-58.12533,-1.304 -131.48799,-14.31333 -163.06933,-46.916l-1.856,-1.91467l-0.16933,-2.664c-3.56667,-56.03733 -2.62933,-58.84666 -2.12667,-60.35733c0.16,-0.47733 0.36,-0.952 0.61867,-1.45067c0.34533,-0.664 0.792,-1.37067 1.37867,-2.184c1.32,-1.82933 3.34667,-4.18933 6.50267,-7.80133c0.54667,-0.62267 1.176,-1.34267 1.832,-2.1c0.32933,-0.37733 0.664,-0.76667 0.99733,-1.15467c1.00133,-1.168 1.996,-2.35067 2.78667,-3.34533c0.52667,-0.664 0.96533,-1.244 1.25333,-1.68133c0.348,-3.28533 0.54667,-13.568 0.63733,-28.124c0.024,-4.04267 0.04133,-8.416 0.04933,-13.06133c0.008,-4.644 0.00933,-9.56 0.004,-14.688c0,-0.484 -0.00133,-0.976 -0.00267,-1.46267c-0.00133,-1.58 -0.004,-3.17333 -0.00667,-4.79067c-0.012,-5.29067 -0.02933,-10.76933 -0.052,-16.38c-0.01067,-2.628 -0.02267,-5.28533 -0.036,-7.964c-0.01467,-3.04267 -0.03067,-6.112 -0.048,-9.204c-0.00667,-1.16267 -0.01467,-2.32933 -0.02133,-3.49733l-0.00133,-0.26533c-0.02133,-3.41867 -0.04267,-6.856 -0.06667,-10.304c-0.004,-0.62533 -0.008,-1.252 -0.01333,-1.88c-0.012,-1.73333 -0.024,-3.46667 -0.03733,-5.20133c-0.008,-1.18133 -0.01733,-2.364 -0.02667,-3.544c-0.00667,-0.94533 -0.01333,-1.89067 -0.02133,-2.83467c-0.02933,-3.712 -0.05867,-7.41467 -0.09067,-11.096l-0.00133,-0.19467c-0.02933,-3.512 -0.06,-7.004 -0.092,-10.464c-0.01067,-1.152 -0.02133,-2.30133 -0.03333,-3.448c-0.02133,-2.29067 -0.04267,-4.56533 -0.06533,-6.82c-0.02267,-2.25333 -0.044,-4.488 -0.06667,-6.69867c-0.01467,-1.332 -0.028,-2.65333 -0.04267,-3.968c-0.008,-0.86533 -0.01733,-1.732 -0.02667,-2.588c-0.024,-2.16133 -0.04667,-4.292 -0.07067,-6.392c-0.012,-1.05067 -0.02267,-2.09333 -0.03467,-3.12667c-10.31067,-7.74133 -16.99333,-20.06667 -16.99333,-33.92267c0,-5.208 0.94933,-10.196 2.67733,-14.808c0.57733,-1.53733 1.24,-3.032 1.98267,-4.48c-5.908,-1.332 -11.352,-3.9 -16.04667,-7.416c-1.87867,-1.40667 -3.636,-2.96533 -5.256,-4.65733c-0.80933,-0.84667 -1.584,-1.72533 -2.32267,-2.636c-0.368,-0.45467 -0.728,-0.91733 -1.07867,-1.38933c-0.7,-0.94 -1.36267,-1.912 -1.98533,-2.90933c-0.62267,-0.99867 -1.204,-2.02533 -1.74267,-3.076c-0.80933,-1.57733 -1.52133,-3.212 -2.13067,-4.896c-0.01467,-0.04267 -0.028,-0.08667 -0.044,-0.12933c-0.38667,-1.08133 -0.73333,-2.18133 -1.03333,-3.3c-0.93333,-3.492 -1.43067,-7.16133 -1.43067,-10.94267c0,-2.308 0.18533,-4.57467 0.54133,-6.78267c0.596,-3.68133 1.66533,-7.20533 3.148,-10.50667c0.592,-1.32 1.25067,-2.60533 1.97067,-3.85067c2.15867,-3.736 4.87067,-7.11333 8.02267,-10.02c-10.336,-9.416 -16.83333,-22.976 -16.83333,-38.02666c0,-0.88667 0.02267,-1.76667 0.068,-2.64267c0.088,-1.75067 0.26533,-3.47867 0.52667,-5.18c0.16133,-1.05467 0.36533,-2.09333 0.58933,-3.12533c0.68267,-3.132 1.63867,-6.164 2.86533,-9.056c0.652,-1.53733 1.376,-3.03733 2.168,-4.496c0.684,-1.25467 1.42667,-2.472 2.208,-3.66133l0,0.00133c1.03333,-1.57333 2.14133,-3.09467 3.336,-4.54133c2.616,-3.17067 5.60533,-6.02133 8.89867,-8.48933c1.82,-1.36267 3.73333,-2.60667 5.728,-3.72133c3.32533,-1.85733 6.87733,-3.356 10.60133,-4.448c4.588,-1.34533 9.43467,-2.08133 14.452,-2.08133c1.02133,0 2.03467,0.03333 3.04133,0.096c0.928,0.05867 1.848,0.14667 2.76267,0.24933c0.076,0.00933 0.15467,0.012 0.232,0.02133c-0.25867,-0.828 -0.50133,-1.66267 -0.728,-2.504c-1.13867,-4.204 -1.89867,-8.56133 -2.23867,-13.03467c-0.136,-1.78933 -0.20667,-3.596 -0.20667,-5.42c0,-1.828 0.07067,-3.63733 0.20667,-5.43067c0.13733,-1.792 0.34133,-3.56667 0.60933,-5.32c0.53733,-3.50533 1.33333,-6.928 2.368,-10.24667c0.68933,-2.21067 1.484,-4.37733 2.38,-6.49067c1.34267,-3.16933 2.91067,-6.22267 4.684,-9.13733c1.18267,-1.94267 2.45467,-3.82533 3.81333,-5.64c0.67867,-0.90667 1.37867,-1.79733 2.1,-2.67067c5.04667,-6.112 11.09733,-11.364 17.89867,-15.50133c1.944,-1.18133 3.948,-2.27333 6.008,-3.26667c6.17867,-2.98267 12.85467,-5.09067 19.86667,-6.16533c3.50667,-0.53733 7.096,-0.816 10.75067,-0.816c3.952,0 7.83067,0.32667 11.60667,0.95333c0.552,0.092 1.1,0.19733 1.648,0.30133c0.95067,0.18133 1.89733,0.37467 2.83467,0.59467c2.95467,0.69067 5.83733,1.56667 8.63733,2.616c1.4,0.52533 2.77733,1.09333 4.13467,1.70267c1.356,0.60933 2.68933,1.26133 3.99867,1.952c0.736,0.388 1.46133,0.79067 2.18,1.204l0,0.00133c1.84533,1.05733 3.63867,2.19333 5.37467,3.40667c6.06,4.24267 11.42667,9.412 15.896,15.29867c1.312,1.728 2.548,3.51733 3.7,5.364c3.50267,-4.12533 7.57333,-7.752 12.09067,-10.76133c0.64533,-0.43067 1.29867,-0.848 1.96267,-1.252c5.60933,-3.42133 11.852,-5.896 18.5,-7.24c3.69867,-0.748 7.51867,-1.16133 11.43467,-1.16133c2.528,0 5.01867,0.168 7.46133,0.484c3.05867,0.39733 6.044,1.03067 8.93333,1.88933c2.97067,0.88267 5.84267,1.99867 8.59333,3.32667c0.26533,0.12667 0.524,0.26667 0.78667,0.39867c1.10133,0.552 2.18667,1.12933 3.24667,1.748c1.968,1.15067 3.86133,2.41467 5.67467,3.78267c0.50933,-0.388 1.024,-0.76667 1.54933,-1.13467c1.04667,-0.73733 2.12533,-1.43333 3.23067,-2.088c1.10667,-0.65333 2.24,-1.264 3.40133,-1.83067c0.73733,-0.36 1.49067,-0.69467 2.24933,-1.01733c1.62533,-0.692 3.292,-1.304 5.00133,-1.81867c1.25333,-0.376 2.53067,-0.70133 3.824,-0.97733c1.29467,-0.27467 2.608,-0.49733 3.93867,-0.66533c1.99467,-0.252 4.028,-0.38267 6.09067,-0.38267c0.716,0 1.42667,0.024 2.13467,0.05467c6.832,0.29867 13.30133,2.02 19.116,4.87867c2,0.984 3.928,2.09467 5.76133,3.33467c3.21467,2.17467 6.156,4.72533 8.75867,7.588c0.51467,0.56533 1.01333,1.14267 1.5,1.73067c0.5,0.60533 0.98667,1.22267 1.45733,1.852c0.92933,1.24133 1.8,2.528 2.608,3.85733c0.80933,1.32933 1.55467,2.7 2.23333,4.10933c1.70133,3.52133 2.98533,7.28 3.792,11.20933c0.64533,3.14533 0.984,6.4 0.984,9.732c0,0.6 -0.01067,1.19867 -0.03333,1.79333c-0.06667,1.78667 -0.23067,3.548 -0.488,5.28c-0.34267,2.30933 -0.84933,4.56533 -1.50533,6.75733c3.168,2.648 6.048,5.62933 8.58667,8.88933c1.27067,1.62933 2.45467,3.328 3.54667,5.09067c1.63867,2.64267 3.068,5.428 4.26933,8.33067c2.8,6.77333 4.34533,14.192 4.34533,21.96667c0,0.00667 0,0.01333 0,0.02l0,0c-0.03867,13.80267 -4.84133,28.37333 -8.44933,43.36c-0.72133,2.99733 -1.39467,6.012 -1.97333,9.04c-0.72267,3.78533 -1.29733,7.592 -1.628,11.416c-0.19733,2.29467 -0.308,4.59333 -0.312,6.89867c0.83467,-0.01867 1.712,-0.03333 2.60667,-0.048c0.16667,-0.00267 0.33067,-0.00533 0.5,-0.008c0.868,-0.01333 1.76133,-0.024 2.67867,-0.03333c0.18267,-0.00133 0.36933,-0.00267 0.55467,-0.00533c0.936,-0.008 1.88933,-0.016 2.868,-0.02c0.03067,0 0.06,0 0.092,0c0.99733,-0.00533 2.02133,-0.00667 3.05733,-0.008l0.82667,0c0.20933,0 0.42,0 0.63067,0.00133c0.46133,0 0.92667,0.00133 1.39333,0.00267c0.20533,0.00133 0.408,0.00133 0.612,0.00267c0.15333,0 0.308,0.00133 0.46133,0.00133l0.00133,0c0.43333,0.00133 0.87067,0.004 1.308,0.00667c0.08133,0 0.16,0 0.23867,0.00133c0.672,0.004 1.348,0.008 2.02667,0.01467c0.18533,0.00133 0.372,0.00267 0.55867,0.00533c0.496,0.004 0.99333,0.008 1.49333,0.01333l0.68667,0.008c0.51067,0.00667 1.02267,0.012 1.536,0.01867c0.17867,0.00267 0.35867,0.00533 0.54,0.00667c0.69333,0.00933 1.39067,0.02 2.08667,0.03067l0.21867,0.004c0.62933,0.01067 1.25867,0.02133 1.888,0.032c0.20667,0.004 0.41333,0.008 0.61867,0.012c0.49467,0.00933 0.98933,0.01867 1.48267,0.02933c0.24133,0.00533 0.484,0.01067 0.72533,0.01467c0.492,0.01067 0.984,0.02267 1.47467,0.03333c0.20667,0.004 0.41333,0.00933 0.62,0.01467c0.68533,0.016 1.368,0.03333 2.05067,0.05067c0.13067,0.00267 0.26,0.00667 0.392,0.01067c0.552,0.01467 1.10267,0.02933 1.65067,0.04533c0.24,0.00667 0.47867,0.01333 0.716,0.02133c0.46267,0.01333 0.924,0.028 1.38133,0.04267c0.232,0.00667 0.464,0.01333 0.696,0.02133c0.49467,0.016 0.98533,0.03333 1.476,0.04933c0.18267,0.00667 0.368,0.01333 0.54933,0.01867c0.656,0.024 1.30533,0.048 1.95067,0.07333c0.17067,0.00533 0.33733,0.012 0.508,0.02c0.476,0.01733 0.948,0.03733 1.41867,0.05733c0.23733,0.00933 0.47467,0.01867 0.712,0.02933c0.42133,0.01867 0.84133,0.03733 1.256,0.056c0.22133,0.00933 0.44267,0.02 0.66,0.03067c0.48133,0.02133 0.95467,0.044 1.42533,0.068c0.14267,0.00667 0.288,0.01333 0.428,0.02133c0.6,0.02933 1.19067,0.06133 1.77333,0.09333c0.168,0.00933 0.33067,0.01733 0.49733,0.028c0.42533,0.02267 0.848,0.04667 1.26267,0.072c0.19867,0.012 0.39333,0.024 0.58933,0.036c0.38933,0.024 0.772,0.048 1.152,0.07333c0.184,0.01067 0.36667,0.02267 0.54933,0.03467c0.472,0.032 0.93467,0.064 1.39067,0.09733c0.06933,0.004 0.14267,0.00933 0.212,0.01333c0.52,0.03867 1.02533,0.07733 1.52133,0.116c0.15333,0.01333 0.30133,0.02533 0.45067,0.03733c0.344,0.028 0.684,0.05733 1.01467,0.08533c0.16933,0.01467 0.33733,0.03067 0.50267,0.04533c0.32267,0.02933 0.636,0.05867 0.94667,0.088c0.14,0.01333 0.284,0.028 0.42267,0.04133c0.04267,0.004 0.08267,0.00933 0.12667,0.01333l0.00133,-0.00133c0.39333,0.04 0.776,0.08 1.144,0.12133c2.52933,0.28133 4.96267,0.64267 7.3,1.08c2.33867,0.43733 4.58133,0.95067 6.73467,1.532c3.22667,0.872 6.248,1.90133 9.07067,3.06667c1.88267,0.77733 3.67733,1.61467 5.38533,2.508c2.564,1.33867 4.932,2.80133 7.12133,4.368c1.30533,0.93467 2.53733,1.91333 3.71467,2.91867c0.13733,0.116 0.28133,0.228 0.416,0.34533c1.296,1.13067 2.51333,2.30133 3.656,3.50667c1.14,1.20533 2.204,2.444 3.19467,3.712c0.98933,1.26933 1.90533,2.56533 2.75067,3.88533c0.844,1.32 1.616,2.66267 2.31867,4.02133c0.70267,1.36 1.33733,2.736 1.90533,4.12267c1.13333,2.77467 2.00267,5.59467 2.62533,8.412c0.16,0.72667 0.30133,1.452 0.42933,2.17733c0.12,0.68133 0.228,1.36267 0.31867,2.04267c0.19067,1.40133 0.32133,2.796 0.396,4.18c0.012,0.23467 0.02133,0.48667 0.024,0.75333c0.01067,0.80133 -0.01733,1.74267 -0.08267,2.81733c-0.03067,0.52933 -0.07333,1.09067 -0.12267,1.684c-0.14933,1.77733 -0.37867,3.83333 -0.676,6.128c-0.032,0.248 -0.064,0.49333 -0.09733,0.748c-0.16933,1.268 -0.35867,2.60667 -0.568,4.01067c-0.068,0.46667 -0.14,0.94267 -0.21333,1.424c-0.296,1.928 -0.624,3.96667 -0.98,6.10533c-0.17867,1.06933 -0.36533,2.16267 -0.55867,3.28133c-0.11067,0.636 -0.224,1.28133 -0.33867,1.93067c-0.08533,0.49333 -0.17467,0.988 -0.26267,1.48933c-0.416,2.324 -0.85733,4.73467 -1.32267,7.22133c-0.23333,1.24267 -0.47333,2.504 -0.71867,3.78133c-0.272,1.424 -0.552,2.872 -0.83867,4.33733c-0.48533,2.47733 -0.98667,5.008 -1.50533,7.584c-0.584,2.89467 -1.188,5.84667 -1.808,8.836c-0.112,0.53867 -0.224,1.07867 -0.33733,1.61867c-0.73733,3.54533 -1.5,7.144 -2.27867,10.77067c-0.276,1.288 -0.55467,2.58 -0.836,3.87333c-0.03467,0.164 -0.06933,0.32667 -0.10533,0.48933c-0.316,1.45867 -0.63467,2.92 -0.95467,4.38267c-0.64133,2.92533 -1.28933,5.856 -1.94533,8.77867c-1.46933,6.57867 -2.96267,13.12267 -4.448,19.49067c-1.12,4.80933 -2.24133,9.54667 -3.35467,14.17867c-1.16933,4.86133 -2.32933,9.60667 -3.47333,14.21067c-0.67333,2.70667 -1.34,5.36933 -2,7.968c-0.648,2.548 -1.28533,5.03467 -1.91733,7.46533c-0.412,1.588 -0.82,3.15733 -1.22533,4.68933c-0.34,1.29467 -0.67867,2.56933 -1.01333,3.82267c-1.33867,5.012 -2.62667,9.69067 -3.844,13.96533c-0.87467,3.07067 -1.69333,5.86667 -2.46133,8.412c-0.256,0.84933 -0.50533,1.66933 -0.75067,2.46267c-3.828,12.41867 -6.32267,18.29467 -8.25333,21.30667c-0.16933,0.26267 -0.33467,0.51333 -0.49467,0.73467c-0.34667,0.476 -0.67333,0.86 -0.98933,1.18133c-0.00533,0.00667 -0.01333,0.016 -0.02,0.02267c-0.35733,0.36 -0.69733,0.63333 -1.03067,0.86133c-0.12533,0.08667 -0.252,0.168 -0.37867,0.24267c-0.33333,0.2 -0.66,0.36533 -0.98933,0.52933c-1.664,0.82667 -4.23733,1.56267 -7.424,2.20267c-0.796,0.16133 -1.632,0.31467 -2.5,0.46533c-0.436,0.07333 -0.87867,0.14667 -1.328,0.21867c-0.90267,0.14133 -1.83467,0.28 -2.79467,0.41067c-2.40133,0.328 -4.96933,0.62 -7.63333,0.87467c-1.06533,0.10133 -2.14533,0.19733 -3.23733,0.28667c-0.54667,0.04667 -1.09467,0.09067 -1.64533,0.132c-1.10133,0.08533 -2.21067,0.16267 -3.32533,0.23467c-5.012,0.32667 -10.10133,0.532 -14.85067,0.61733c-1.844,0.03333 -3.75333,0.052 -5.704,0.052c-0.92267,0 -1.85467,-0.00533 -2.79333,-0.01467c-0.94,-0.00933 -1.88667,-0.02533 -2.83733,-0.04267c0.03867,3.016 0.07867,5.78 0.12133,8.276c0.01067,0.62533 0.02133,1.232 0.032,1.82133c0.00267,0.22267 0.00667,0.42933 0.012,0.64533c0.01867,0.94 0.036,1.84267 0.05467,2.68933c0.10267,4.68667 0.21733,7.944 0.34533,9.56667c0.3,0.44667 0.74133,1.028 1.26933,1.68933c1.58267,1.98533 3.93733,4.67867 5.556,6.528c0.35067,0.40267 0.688,0.788 1.01067,1.15867c0.972,1.11333 1.82,2.09733 2.56533,2.97733c0.248,0.29333 0.48533,0.576 0.71067,0.84667c0.67733,0.816 1.256,1.53467 1.74933,2.18667c0.32933,0.43467 0.62133,0.83867 0.88133,1.22133c0.77867,1.144 1.264,2.088 1.58133,3.04267c0.02133,0.064 0.044,0.13067 0.06667,0.20533c0.05333,0.17467 0.11067,0.39733 0.17067,0.73333c0.02533,0.144 0.05067,0.30933 0.076,0.49867c0.03333,0.256 0.06667,0.55733 0.10133,0.91867c0.032,0.36 0.06533,0.78 0.096,1.272c0.02267,0.368 0.044,0.77867 0.06667,1.23333c0.01467,0.30267 0.02667,0.62667 0.04,0.972c0.01467,0.34667 0.02667,0.71333 0.03867,1.10533c0.04267,1.36933 0.076,3.02533 0.1,5.03733c0.01067,0.86267 0.01733,1.79067 0.024,2.79067c0.004,0.664 0.00667,1.35867 0.008,2.08667c0.00133,0.73067 0.00267,1.492 0.00267,2.28933c-0.00133,1.39467 -0.00667,2.89467 -0.01467,4.50933c-0.00933,1.61467 -0.02133,3.344 -0.03867,5.19467c-0.008,0.944 -0.01867,1.91867 -0.028,2.92667c-0.03467,3.02667 -0.07867,6.34933 -0.13467,9.996c-0.00933,0.59067 -0.01867,1.18667 -0.028,1.79467c-0.07867,4.912 -0.17867,10.39067 -0.30533,16.50533l-0.064,3.12533l-1.52,1.37333l-0.79733,0.72267c-12.39333,11.21333 -29.7,20.52533 -50.69466,27.632m-298.11199,-32.24267l-0.16933,-2.66267c-0.62267,-9.788 -1.11333,-17.99733 -1.496,-24.91067l-48.86533,61.264c6.23333,4.97333 12.71333,9.81067 19.26,14.38l31.46133,-45.08l-0.19067,-2.99067zm395.73732,-99.504c-4.21067,2.09333 -11.31467,3.52 -18.87467,4.48933l92.20933,78.57733c5.16533,-6.06 10.20267,-12.36933 14.972,-18.74933l-86.972,-65.02266c-0.432,0.244 -0.87733,0.47733 -1.33467,0.70533m-49.15733,6.524c-0.34,0.00533 -0.67867,0.012 -1.01733,0.016c0.08,4.16267 0.15467,6.97467 0.22533,8.86667c1.50667,1.81067 3.57867,4.17867 4.448,5.17333c5.80267,6.63333 8.632,9.97333 10.21467,14.10667l75.25333,82.82666c5.88533,-5.348 11.68267,-10.96267 17.22667,-16.68533l-97.632,-94.58533c-4.016,0.18 -7.16133,0.25333 -8.71867,0.28133m-332.83465,-40.008l-130.89573,97.98266c4.76707,6.36933 9.80613,12.67067 14.976,18.73067l115.88373,-98.86666c0.024,-5.41733 0.036,-11.404 0.036,-17.84667m172.46933,191.63199c-3.68533,0 -7.452,-0.04267 -11.19467,-0.12533c-0.548,-0.01333 -1.09733,-0.03467 -1.644,-0.04933l-1.784,56.84413c3.95467,0.124 7.976,0.19173 11.888,0.18387c3.99067,0 8.04667,-0.0656 12.05867,-0.19587l-1.82533,-56.72146c-2.49067,0.04133 -4.988,0.064 -7.49867,0.064m-187.99999,-125.59199c1.51733,-4.55333 4.324,-7.88133 10.528,-14.976c0.888,-1.016 3.03467,-3.46933 4.54667,-5.29333c0.088,-1.92133 0.16133,-4.56533 0.22133,-7.84133l-99.52,96.54933c5.53707,5.70933 11.32973,11.312 17.21307,16.652l66.00693,-72.724c-0.124,-8.98267 0.408,-10.58 1.004,-12.36667m14.72533,-189.57199c-1.056,-0.97467 -2.056,-2.00133 -3.024,-3.05467l-201.81332,0.22c0.00781,7.93333 0.27031,15.96667 0.78021,23.87333l204.14245,-13.13867c-0.028,-2.63867 -0.056,-5.27467 -0.08533,-7.9m5.696,-240.65466c0,-9.168 1.552,-17.976 4.37067,-26.20133l-34.72933,-57.01333c-6.80933,4.148 -13.576,8.57333 -20.11333,13.15467l50.504,72.08133c-0.016,-0.67333 -0.032,-1.34667 -0.032,-2.02133m-5.11067,306.35332l-177.87373,72.312c3.00947,7.40267 6.29747,14.80133 9.77453,21.992l168.17786,-81.32533c-0.02267,-4.26133 -0.04933,-8.59333 -0.07867,-12.97867m-16.004,-117.43866l-177.34939,-46.12533c-2.01457,7.75067 -3.80416,15.668 -5.31615,23.53067l181.06021,34.808c0.05733,-4.116 0.592,-8.224 1.60533,-12.21333m-0.26533,24.70533l-186.18406,-23.51467c-0.99583,7.88933 -1.75156,15.91867 -2.24531,23.86133l192.9467,11.976c-2.00533,-3.89733 -3.524,-8.03867 -4.51733,-12.32267m15.88133,45.95066l-201.94924,26.01333c1.02136,7.92933 2.31147,15.92533 3.83959,23.768l198.21632,-38.60533c-0.03467,-3.72267 -0.06933,-7.45067 -0.10667,-11.176m2.14133,255.31466l-26.37733,43.496c6.82267,4.13867 13.872,8.11067 20.94933,11.80533l23.088,-44.22533c-6.55067,-3.43333 -12.44933,-7.124 -17.66,-11.076m-1.60667,-181.73999l-157.07666,88.83333c3.92707,6.94133 8.12813,13.848 12.4896,20.52133l144.63773,-94.492c-0.012,-4.79467 -0.02933,-9.75867 -0.05067,-14.86267m-0.328,-50.95333l-192.95226,50.644c2.03693,7.76 4.35733,15.55867 6.89587,23.18133l186.14973,-62.00266c-0.02933,-3.916 -0.06,-7.86 -0.09333,-11.82267m75.23866,-362.44532l-12.528,-42.00933c-7.68133,2.29067 -15.384,4.86133 -22.89333,7.63867l14.81867,40.04933c6.48,-2.76267 13.39333,-4.688 20.60267,-5.67867m-83.81066,94.31333l-55.81466,-69.72666c-6.21067,4.97067 -12.34427,10.20933 -18.22867,15.568l57.618,63.26666c4.93467,-3.824 10.468,-6.908 16.42533,-9.108m-32.29467,104.82933l-116.24439,-65.436c-3.92507,6.972 -7.67613,14.16667 -11.14533,21.38133l122.91239,59.12266c0.73467,-5.232 2.24933,-10.312 4.47733,-15.068m3.07733,-82.30933l-62.0484,-59.95866c-5.53173,5.724 -10.94787,11.69867 -16.10093,17.76l69.73066,59.28533c1.92267,-6.164 4.78267,-11.916 8.41867,-17.08667m-7.20933,114.05866l-133.01866,-53.71466c-3.00627,7.448 -5.80947,15.08933 -8.32667,22.712l148.15999,48.93866c-3.34667,-5.512 -5.65733,-11.60267 -6.81467,-17.936m-3.96667,-76.372l-81.93906,-61.1c-4.76667,6.39333 -9.3864,13.02 -13.73227,19.69733l101.95666,66.34533c-3.79333,-7.728 -5.96667,-16.22533 -6.28533,-24.94267m453.50798,276.09999l103.596,49.976c3.488,-7.228 6.78267,-14.66133 9.792,-22.092l-109.02133,-44.156c-1.51467,5.81467 -2.97867,11.26133 -4.36667,16.272m-10.544,32.88933l90.48533,59.008c4.356,-6.67867 8.552,-13.58667 12.47467,-20.532l-97.20933,-54.88266c-2.17867,7.04933 -4.04,12.34533 -5.75067,16.40667m-274.68265,-457.25331l-9.56533,-59.04266c-7.90133,1.28133 -15.87067,2.83733 -23.68267,4.62667l11.01867,48.108c7.672,1.03067 15.168,3.15333 22.22933,6.308m228.95332,566.69997l36.62133,52.396c6.528,-4.56267 12.99333,-9.396 19.21867,-14.36533l-55.38266,-69.36c-0.05067,7.82667 -0.19333,18.016 -0.45733,31.32933m64.73333,-174.69333l113.27066,37.56266c2.52,-7.6 4.824,-15.38 6.84933,-23.124l-116.22266,-30.388c-1.31067,5.46933 -2.61467,10.79867 -3.89733,15.94933m7.65867,-31.9l117.81199,22.792c1.51467,-7.84 2.79733,-15.82667 3.80933,-23.748l-117.98266,-15.06533c-1.56667,7.00933 -2.85867,12.644 -3.63867,16.02133m-138.67066,255.07199l17.83467,48.388c7.49333,-2.76267 15,-5.80667 22.30933,-9.04933l-20.56,-46.352c-6.13867,2.53733 -12.66667,4.87867 -19.584,7.01333m-218.39999,56.13066c7.68933,2.272 15.548,4.32253 23.356,6.0892l12.08933,-53.37853c-6.976,-1.12667 -13.78667,-2.39867 -20.34267,-3.82533l-15.10267,51.11466zm256.73199,-72.19066l23.496,44.932c7.06533,-3.69333 14.11067,-7.67067 20.94,-11.82l-27.16267,-44.70933c-5.16267,4.14133 -10.91867,8.01333 -17.27333,11.59733m-209.75599,82.8372c7.888,1.26147 15.92533,2.28427 23.88933,3.03747l5.32667,-56.32133c-6.85333,-0.47733 -13.672,-1.092 -20.39867,-1.85733l-8.81733,55.1412zm90.13466,-52.97186l5.36267,55.96666c7.94533,-0.76 15.96933,-1.79067 23.848,-3.05893l-8.792,-54.62506c-6.68133,0.72533 -13.49333,1.30133 -20.41867,1.71733m-182.42133,25.68667c7.33333,3.244 14.86667,6.28933 22.388,9.05067l17.852,-48.61466c-7.01733,-2.024 -13.63867,-4.21467 -19.82667,-6.58533l-20.41333,46.14933zm223.28932,-30.168l12.03467,52.788c7.80933,-1.7812 15.65467,-3.83733 23.31867,-6.112l-15.028,-50.62666c-6.54667,1.49467 -13.33867,2.80933 -20.32533,3.95067m-93.96,-603.44131c3.84667,-3.11067 8.004,-5.77333 12.39067,-7.964l-2.55467,-76.77466c-7.94933,0.26533 -15.98267,0.788 -23.87867,1.55333l7.40933,76.38133c2.336,2.14 4.55867,4.40667 6.63333,6.804m293.67865,227.20132c0.124,2.31333 -0.08133,5.69067 -0.53733,9.84667l97.54666,-19.13067c-1.53867,-7.84267 -3.352,-15.73867 -5.392,-23.46933l-92.63333,24.43733c0.52267,2.73333 0.86667,5.51067 1.016,8.316m-203.15332,-238.34132l14.55733,-64.63466c-7.796,-1.756 -15.75333,-3.28133 -23.65067,-4.53333l-11.25467,70.97866c2.48133,1.1 4.90667,2.34667 7.25867,3.752c4.14267,-2.4 8.53067,-4.25733 13.08933,-5.56267m169.42133,186.43466l100.24533,-48.612c-3.48667,-7.19067 -7.25333,-14.36 -11.196,-21.312l-109.81466,62.26666c7.57467,1.752 14.528,4.32533 20.76533,7.65733m137.75333,113.83599l0.00267,0.78533l-0.00267,-0.78533zm-110.43333,-16.36533l109.62533,-7.20533c-0.52133,-7.94667 -1.304,-15.968 -2.328,-23.84267l-104.08933,13.52533c-0.94,5.51467 -2.03467,11.444 -3.208,17.52267m110.436,17.15067l-113.86933,-0.02667c-1.19733,5.80267 -2.41067,11.516 -3.57867,16.91867l116.69599,7.36933c0.49867,-7.90133 0.75333,-15.92533 0.75333,-23.848l-0.00133,-0.41333zm-213.59732,-186.89599l0.00267,0.02933l-0.00133,0.4l0,0.09733c-0.01333,2.91067 -0.21067,5.82933 -0.54267,8.74933l90.72533,-100.172c-5.908,-5.35067 -12.06667,-10.58133 -18.30667,-15.54533l-73.45066,92.32266c1.00133,4.596 1.548,9.32133 1.57333,14.11867m-295.52665,-113.67199l-18.67467,-41.95733c-7.3,3.24933 -14.59067,6.78 -21.66933,10.49333l24.92,47.508c4.38533,-6.02933 9.58,-11.42667 15.424,-16.044m275.88799,66.27066c4.34267,4.39467 8.01467,9.32133 10.98133,14.62l61.26933,-88.00666c-6.55467,-4.564 -13.33733,-8.97067 -20.16267,-13.1l-52.00266,85.944c-0.03067,0.18 -0.05333,0.36133 -0.08533,0.54267m-113.33199,-70.212l6.41067,-68.72133c-7.896,-0.736 -15.92,-1.22933 -23.852,-1.46533l-2.10133,70.58666c3.648,-0.604 7.364,-0.92267 11.12,-0.92267c2.83867,0 5.648,0.18133 8.42267,0.52267m126.70666,154.04799c-1.92,7.38533 -3.872,14.932 -5.03467,22.38667l134.88399,-115.35599c-5.17333,-6.048 -10.608,-12.008 -16.152,-17.71333l-113.63733,110.452c-0.02,0.07733 -0.04,0.15467 -0.06,0.23067m99.08133,48.63333c3.94,4.16133 7.23867,8.84 9.85467,13.868l91.62266,-30.596c-2.54,-7.604 -5.36667,-15.23733 -8.40533,-22.68533l-94.10933,38.37333c0.34533,0.348 0.70133,0.68533 1.03733,1.04m-125.55466,-250.24399c-7.52533,-2.75333 -15.23467,-5.296 -22.90933,-7.55467l-16.64133,56.548c6.98533,0.60667 13.62133,2.43867 19.696,5.28533l19.85467,-54.27866zm63.30266,226.79332l121.81199,-79.77866c-4.364,-6.66133 -9.00133,-13.272 -13.784,-19.64667l-131.44133,98.62c8.12933,0.156 16.336,0.42 23.41333,0.80533m-66.14,-160.45599l25.27467,-57.296c7.32933,3.23333 14.64667,6.74667 21.74933,10.44267l-34.40667,66.108c-2.91733,-7.24267 -7.232,-13.77333 -12.61733,-19.25467"/>
 </g>
</svg>